<svg xmlns="http://www.w3.org/2000/svg" xmlns:svg="http://www.w3.org/2000/svg" xmlns:xlink="http://www.w3.org/1999/xlink" width="111" height="31"><g><line x1="0" y1="0" x2="10" y2="0" stroke="black" /><line x1="0" y1="0" x2="0" y2="10" stroke="black" />
<line x1="10" y1="0" x2="10" y2="10" stroke="black" /><line x1="8" y1="5" x2="6" y2="7" stroke="red" />
<line x1="8" y1="5" x2="6" y2="3" stroke="red" /><line x1="10" y1="0" x2="20" y2="0" stroke="black" />
<line x1="10" y1="10" x2="20" y2="10" stroke="black" /><line x1="18" y1="5" x2="16" y2="7" stroke="red" />
<line x1="18" y1="5" x2="16" y2="3" stroke="red" /><line x1="20" y1="0" x2="30" y2="0" stroke="black" />
<line x1="30" y1="0" x2="30" y2="10" stroke="black" /><line x1="0" y1="10" x2="0" y2="20" stroke="black" />
<line x1="0" y1="20" x2="10" y2="20" stroke="black" /><line x1="20" y1="10" x2="20" y2="20" stroke="black" />
<line x1="10" y1="20" x2="20" y2="20" stroke="black" /><line x1="18" y1="15" x2="16" y2="17" stroke="red" />
<line x1="18" y1="15" x2="16" y2="13" stroke="red" /><line x1="30" y1="10" x2="30" y2="20" stroke="black" />
<line x1="0" y1="20" x2="0" y2="30" stroke="black" /><line x1="0" y1="30" x2="10" y2="30" stroke="black" />
<line x1="8" y1="25" x2="6" y2="27" stroke="red" /><line x1="8" y1="25" x2="6" y2="23" stroke="red" />
<line x1="20" y1="20" x2="20" y2="30" stroke="black" /><line x1="10" y1="30" x2="20" y2="30" stroke="black" />
<line x1="30" y1="20" x2="30" y2="30" stroke="black" /><line x1="20" y1="30" x2="30" y2="30" stroke="black" />
<line x1="28" y1="25" x2="26" y2="27" stroke="red" /><line x1="28" y1="25" x2="26" y2="23" stroke="red" />
<line x1="40" y1="0" x2="50" y2="0" stroke="black" /><line x1="40" y1="0" x2="40" y2="10" stroke="black" />
<line x1="50" y1="0" x2="50" y2="10" stroke="black" /><line x1="40" y1="10" x2="50" y2="10" stroke="black" />
<line x1="42" y1="5" x2="44" y2="7" stroke="red" /><line x1="42" y1="5" x2="44" y2="3" stroke="red" />
<line x1="48" y1="5" x2="46" y2="7" stroke="red" /><line x1="48" y1="5" x2="46" y2="3" stroke="red" />
<line x1="50" y1="0" x2="60" y2="0" stroke="black" /><line x1="60" y1="0" x2="60" y2="10" stroke="black" />
<line x1="50" y1="10" x2="60" y2="10" stroke="black" /><line x1="52" y1="5" x2="54" y2="7" stroke="red" />
<line x1="52" y1="5" x2="54" y2="3" stroke="red" /><line x1="58" y1="5" x2="56" y2="7" stroke="red" />
<line x1="58" y1="5" x2="56" y2="3" stroke="red" /><line x1="60" y1="0" x2="70" y2="0" stroke="black" />
<line x1="70" y1="0" x2="70" y2="10" stroke="black" /><line x1="68" y1="5" x2="66" y2="7" stroke="red" />
<line x1="68" y1="5" x2="66" y2="3" stroke="red" /><line x1="40" y1="10" x2="40" y2="20" stroke="black" />
<line x1="50" y1="10" x2="50" y2="20" stroke="black" /><line x1="48" y1="15" x2="46" y2="17" stroke="red" />
<line x1="48" y1="15" x2="46" y2="13" stroke="red" /><line x1="50" y1="20" x2="60" y2="20" stroke="black" />
<line x1="52" y1="15" x2="54" y2="17" stroke="red" /><line x1="52" y1="15" x2="54" y2="13" stroke="red" />
<line x1="70" y1="10" x2="70" y2="20" stroke="black" /><line x1="60" y1="20" x2="70" y2="20" stroke="black" />
<line x1="40" y1="20" x2="40" y2="30" stroke="black" /><line x1="50" y1="20" x2="50" y2="30" stroke="black" />
<line x1="40" y1="30" x2="50" y2="30" stroke="black" /><line x1="42" y1="25" x2="44" y2="27" stroke="red" />
<line x1="42" y1="25" x2="44" y2="23" stroke="red" /><line x1="60" y1="20" x2="60" y2="30" stroke="black" />
<line x1="50" y1="30" x2="60" y2="30" stroke="black" /><line x1="58" y1="25" x2="56" y2="27" stroke="red" />
<line x1="58" y1="25" x2="56" y2="23" stroke="red" /><line x1="70" y1="20" x2="70" y2="30" stroke="black" />
<line x1="60" y1="30" x2="70" y2="30" stroke="black" /><line x1="62" y1="25" x2="64" y2="27" stroke="red" />
<line x1="62" y1="25" x2="64" y2="23" stroke="red" /><line x1="68" y1="25" x2="66" y2="27" stroke="red" />
<line x1="68" y1="25" x2="66" y2="23" stroke="red" /><line x1="80" y1="0" x2="90" y2="0" stroke="black" />
<line x1="80" y1="0" x2="80" y2="10" stroke="black" /><line x1="90" y1="0" x2="90" y2="10" stroke="black" />
<line x1="82" y1="5" x2="84" y2="7" stroke="red" /><line x1="82" y1="5" x2="84" y2="3" stroke="red" />
<line x1="90" y1="0" x2="100" y2="0" stroke="black" /><line x1="100" y1="0" x2="100" y2="10" stroke="black" />
<line x1="92" y1="5" x2="94" y2="7" stroke="red" /><line x1="92" y1="5" x2="94" y2="3" stroke="red" />
<line x1="100" y1="0" x2="110" y2="0" stroke="black" /><line x1="110" y1="0" x2="110" y2="10" stroke="black" />
<line x1="102" y1="5" x2="104" y2="7" stroke="red" /><line x1="102" y1="5" x2="104" y2="3" stroke="red" />
<line x1="80" y1="10" x2="80" y2="20" stroke="black" /><line x1="90" y1="10" x2="90" y2="20" stroke="black" />
<line x1="80" y1="20" x2="90" y2="20" stroke="black" /><line x1="82" y1="15" x2="84" y2="17" stroke="red" />
<line x1="82" y1="15" x2="84" y2="13" stroke="red" /><line x1="90" y1="20" x2="100" y2="20" stroke="black" />
<line x1="110" y1="10" x2="110" y2="20" stroke="black" /><line x1="100" y1="20" x2="110" y2="20" stroke="black" />
<line x1="80" y1="20" x2="80" y2="30" stroke="black" /><line x1="80" y1="30" x2="90" y2="30" stroke="black" />
<line x1="90" y1="30" x2="100" y2="30" stroke="black" /><line x1="92" y1="25" x2="94" y2="27" stroke="red" />
<line x1="92" y1="25" x2="94" y2="23" stroke="red" /><line x1="110" y1="20" x2="110" y2="30" stroke="black" />
<line x1="100" y1="30" x2="110" y2="30" stroke="black" /><line x1="102" y1="25" x2="104" y2="27" stroke="red" />
<line x1="102" y1="25" x2="104" y2="23" stroke="red" /></g>
</svg>
