<svg xmlns="http://www.w3.org/2000/svg" xmlns:svg="http://www.w3.org/2000/svg" xmlns:xlink="http://www.w3.org/1999/xlink" width="50" height="50"><g><line x1="0" y1="0" x2="10" y2="0" stroke="black" /><line x1="0" y1="0" x2="0" y2="10" stroke="black" />
<line x1="10" y1="0" x2="10" y2="10" stroke="black" /><line x1="0" y1="10" x2="10" y2="10" stroke="black" />
<line x1="10" y1="0" x2="20" y2="0" stroke="black" /><line x1="10" y1="0" x2="10" y2="10" stroke="black" />
<line x1="10" y1="10" x2="20" y2="10" stroke="black" /><line x1="20" y1="0" x2="30" y2="0" stroke="black" />
<line x1="30" y1="0" x2="40" y2="0" stroke="black" /><line x1="30" y1="10" x2="40" y2="10" stroke="black" />
<line x1="40" y1="0" x2="50" y2="0" stroke="black" /><line x1="50" y1="0" x2="50" y2="10" stroke="black" />
<line x1="0" y1="10" x2="10" y2="10" stroke="black" /><line x1="0" y1="10" x2="0" y2="20" stroke="black" />
<line x1="10" y1="10" x2="10" y2="20" stroke="black" /><line x1="20" y1="10" x2="20" y2="20" stroke="black" />
<line x1="30" y1="10" x2="30" y2="20" stroke="black" /><line x1="20" y1="20" x2="30" y2="20" stroke="black" />
<line x1="50" y1="10" x2="50" y2="20" stroke="black" /><line x1="0" y1="20" x2="0" y2="30" stroke="black" />
<line x1="10" y1="20" x2="10" y2="30" stroke="black" /><line x1="10" y1="30" x2="20" y2="30" stroke="black" />
<line x1="20" y1="30" x2="30" y2="30" stroke="black" /><line x1="40" y1="20" x2="40" y2="30" stroke="black" />
<line x1="30" y1="30" x2="40" y2="30" stroke="black" /><line x1="50" y1="20" x2="50" y2="30" stroke="black" />
<line x1="0" y1="30" x2="0" y2="40" stroke="black" /><line x1="30" y1="30" x2="30" y2="40" stroke="black" />
<line x1="20" y1="40" x2="30" y2="40" stroke="black" /><line x1="50" y1="30" x2="50" y2="40" stroke="black" />
<line x1="40" y1="40" x2="50" y2="40" stroke="black" /><line x1="0" y1="40" x2="0" y2="50" stroke="black" />
<line x1="10" y1="40" x2="10" y2="50" stroke="black" /><line x1="0" y1="50" x2="10" y2="50" stroke="black" />
<line x1="10" y1="50" x2="20" y2="50" stroke="black" /><line x1="20" y1="50" x2="30" y2="50" stroke="black" />
<line x1="40" y1="40" x2="40" y2="50" stroke="black" /><line x1="30" y1="50" x2="40" y2="50" stroke="black" />
<line x1="50" y1="40" x2="50" y2="50" stroke="black" /><line x1="40" y1="50" x2="50" y2="50" stroke="black" />
</g>
</svg>
