<svg xmlns="http://www.w3.org/2000/svg" xmlns:svg="http://www.w3.org/2000/svg" xmlns:xlink="http://www.w3.org/1999/xlink" width="501" height="101"><g><line x1="0" y1="0" x2="10" y2="0" stroke="black" /><line x1="10" y1="0" x2="10" y2="10" stroke="black" />
<line x1="10" y1="0" x2="20" y2="0" stroke="black" /><line x1="10" y1="10" x2="20" y2="10" stroke="black" />
<line x1="20" y1="0" x2="30" y2="0" stroke="black" /><line x1="30" y1="0" x2="40" y2="0" stroke="black" />
<line x1="40" y1="0" x2="50" y2="0" stroke="black" /><line x1="50" y1="0" x2="50" y2="10" stroke="black" />
<line x1="50" y1="0" x2="60" y2="0" stroke="black" /><line x1="50" y1="10" x2="60" y2="10" stroke="black" />
<line x1="60" y1="0" x2="70" y2="0" stroke="black" /><line x1="60" y1="10" x2="70" y2="10" stroke="black" />
<line x1="70" y1="0" x2="80" y2="0" stroke="black" /><line x1="80" y1="0" x2="90" y2="0" stroke="black" />
<line x1="80" y1="10" x2="90" y2="10" stroke="black" /><line x1="90" y1="0" x2="100" y2="0" stroke="black" />
<line x1="90" y1="10" x2="100" y2="10" stroke="black" /><line x1="100" y1="0" x2="110" y2="0" stroke="black" />
<line x1="100" y1="10" x2="110" y2="10" stroke="black" /><line x1="110" y1="0" x2="120" y2="0" stroke="black" />
<line x1="110" y1="10" x2="120" y2="10" stroke="black" /><line x1="120" y1="0" x2="130" y2="0" stroke="black" />
<line x1="120" y1="10" x2="130" y2="10" stroke="black" /><line x1="130" y1="0" x2="140" y2="0" stroke="black" />
<line x1="130" y1="10" x2="140" y2="10" stroke="black" /><line x1="140" y1="0" x2="150" y2="0" stroke="black" />
<line x1="150" y1="0" x2="150" y2="10" stroke="black" /><line x1="150" y1="0" x2="160" y2="0" stroke="black" />
<line x1="160" y1="0" x2="160" y2="10" stroke="black" /><line x1="160" y1="0" x2="170" y2="0" stroke="black" />
<line x1="170" y1="0" x2="180" y2="0" stroke="black" /><line x1="170" y1="10" x2="180" y2="10" stroke="black" />
<line x1="180" y1="0" x2="190" y2="0" stroke="black" /><line x1="180" y1="10" x2="190" y2="10" stroke="black" />
<line x1="190" y1="0" x2="200" y2="0" stroke="black" /><line x1="190" y1="10" x2="200" y2="10" stroke="black" />
<line x1="200" y1="0" x2="210" y2="0" stroke="black" /><line x1="210" y1="0" x2="220" y2="0" stroke="black" />
<line x1="210" y1="10" x2="220" y2="10" stroke="black" /><line x1="220" y1="0" x2="230" y2="0" stroke="black" />
<line x1="230" y1="0" x2="230" y2="10" stroke="black" /><line x1="230" y1="0" x2="240" y2="0" stroke="black" />
<line x1="240" y1="0" x2="250" y2="0" stroke="black" /><line x1="250" y1="0" x2="250" y2="10" stroke="black" />
<line x1="250" y1="0" x2="260" y2="0" stroke="black" /><line x1="260" y1="0" x2="270" y2="0" stroke="black" />
<line x1="270" y1="0" x2="270" y2="10" stroke="black" /><line x1="270" y1="0" x2="280" y2="0" stroke="black" />
<line x1="280" y1="0" x2="290" y2="0" stroke="black" /><line x1="290" y1="0" x2="290" y2="10" stroke="black" />
<line x1="290" y1="0" x2="300" y2="0" stroke="black" /><line x1="300" y1="0" x2="310" y2="0" stroke="black" />
<line x1="310" y1="0" x2="310" y2="10" stroke="black" /><line x1="300" y1="10" x2="310" y2="10" stroke="black" />
<line x1="310" y1="0" x2="320" y2="0" stroke="black" /><line x1="320" y1="0" x2="330" y2="0" stroke="black" />
<line x1="320" y1="10" x2="330" y2="10" stroke="black" /><line x1="330" y1="0" x2="340" y2="0" stroke="black" />
<line x1="340" y1="0" x2="350" y2="0" stroke="black" /><line x1="350" y1="0" x2="350" y2="10" stroke="black" />
<line x1="350" y1="0" x2="360" y2="0" stroke="black" /><line x1="360" y1="0" x2="370" y2="0" stroke="black" />
<line x1="360" y1="10" x2="370" y2="10" stroke="black" /><line x1="370" y1="0" x2="380" y2="0" stroke="black" />
<line x1="370" y1="10" x2="380" y2="10" stroke="black" /><line x1="380" y1="0" x2="390" y2="0" stroke="black" />
<line x1="380" y1="10" x2="390" y2="10" stroke="black" /><line x1="390" y1="0" x2="400" y2="0" stroke="black" />
<line x1="400" y1="0" x2="400" y2="10" stroke="black" /><line x1="400" y1="0" x2="410" y2="0" stroke="black" />
<line x1="410" y1="0" x2="420" y2="0" stroke="black" /><line x1="420" y1="0" x2="430" y2="0" stroke="black" />
<line x1="420" y1="10" x2="430" y2="10" stroke="black" /><line x1="430" y1="0" x2="440" y2="0" stroke="black" />
<line x1="440" y1="0" x2="440" y2="10" stroke="black" /><line x1="430" y1="10" x2="440" y2="10" stroke="black" />
<line x1="440" y1="0" x2="450" y2="0" stroke="black" /><line x1="450" y1="0" x2="460" y2="0" stroke="black" />
<line x1="460" y1="0" x2="460" y2="10" stroke="black" /><line x1="460" y1="0" x2="470" y2="0" stroke="black" />
<line x1="470" y1="0" x2="480" y2="0" stroke="black" /><line x1="470" y1="10" x2="480" y2="10" stroke="black" />
<line x1="480" y1="0" x2="490" y2="0" stroke="black" /><line x1="480" y1="10" x2="490" y2="10" stroke="black" />
<line x1="490" y1="0" x2="500" y2="0" stroke="black" /><line x1="490" y1="10" x2="500" y2="10" stroke="black" />
<line x1="0" y1="50" x2="10" y2="50" stroke="black" /><line x1="10" y1="50" x2="20" y2="50" stroke="black" />
<line x1="20" y1="50" x2="20" y2="60" stroke="black" /><line x1="10" y1="60" x2="20" y2="60" stroke="black" />
<line x1="20" y1="50" x2="30" y2="50" stroke="black" /><line x1="30" y1="50" x2="40" y2="50" stroke="black" />
<line x1="40" y1="50" x2="40" y2="60" stroke="black" /><line x1="40" y1="50" x2="50" y2="50" stroke="black" />
<line x1="50" y1="50" x2="60" y2="50" stroke="black" /><line x1="60" y1="50" x2="60" y2="60" stroke="black" />
<line x1="60" y1="50" x2="70" y2="50" stroke="black" /><line x1="70" y1="50" x2="80" y2="50" stroke="black" />
<line x1="70" y1="60" x2="80" y2="60" stroke="black" /><line x1="80" y1="50" x2="90" y2="50" stroke="black" />
<line x1="80" y1="60" x2="90" y2="60" stroke="black" /><line x1="90" y1="50" x2="100" y2="50" stroke="black" />
<line x1="100" y1="50" x2="110" y2="50" stroke="black" /><line x1="100" y1="60" x2="110" y2="60" stroke="black" />
<line x1="110" y1="50" x2="120" y2="50" stroke="black" /><line x1="120" y1="50" x2="120" y2="60" stroke="black" />
<line x1="110" y1="60" x2="120" y2="60" stroke="black" /><line x1="120" y1="50" x2="130" y2="50" stroke="black" />
<line x1="130" y1="50" x2="140" y2="50" stroke="black" /><line x1="130" y1="60" x2="140" y2="60" stroke="black" />
<line x1="140" y1="50" x2="150" y2="50" stroke="black" /><line x1="150" y1="50" x2="160" y2="50" stroke="black" />
<line x1="150" y1="60" x2="160" y2="60" stroke="black" /><line x1="160" y1="50" x2="170" y2="50" stroke="black" />
<line x1="170" y1="50" x2="170" y2="60" stroke="black" /><line x1="170" y1="50" x2="180" y2="50" stroke="black" />
<line x1="170" y1="60" x2="180" y2="60" stroke="black" /><line x1="180" y1="50" x2="190" y2="50" stroke="black" />
<line x1="180" y1="60" x2="190" y2="60" stroke="black" /><line x1="190" y1="50" x2="200" y2="50" stroke="black" />
<line x1="190" y1="60" x2="200" y2="60" stroke="black" /><line x1="200" y1="50" x2="210" y2="50" stroke="black" />
<line x1="210" y1="50" x2="220" y2="50" stroke="black" /><line x1="210" y1="60" x2="220" y2="60" stroke="black" />
<line x1="220" y1="50" x2="230" y2="50" stroke="black" /><line x1="230" y1="50" x2="230" y2="60" stroke="black" />
<line x1="230" y1="50" x2="240" y2="50" stroke="black" /><line x1="240" y1="50" x2="250" y2="50" stroke="black" />
<line x1="240" y1="60" x2="250" y2="60" stroke="black" /><line x1="250" y1="50" x2="260" y2="50" stroke="black" />
<line x1="260" y1="50" x2="260" y2="60" stroke="black" /><line x1="260" y1="50" x2="270" y2="50" stroke="black" />
<line x1="260" y1="60" x2="270" y2="60" stroke="black" /><line x1="270" y1="50" x2="280" y2="50" stroke="black" />
<line x1="280" y1="50" x2="290" y2="50" stroke="black" /><line x1="290" y1="50" x2="290" y2="60" stroke="black" />
<line x1="290" y1="50" x2="300" y2="50" stroke="black" /><line x1="300" y1="50" x2="310" y2="50" stroke="black" />
<line x1="310" y1="50" x2="310" y2="60" stroke="black" /><line x1="310" y1="50" x2="320" y2="50" stroke="black" />
<line x1="320" y1="50" x2="330" y2="50" stroke="black" /><line x1="330" y1="50" x2="340" y2="50" stroke="black" />
<line x1="330" y1="60" x2="340" y2="60" stroke="black" /><line x1="340" y1="50" x2="350" y2="50" stroke="black" />
<line x1="350" y1="50" x2="350" y2="60" stroke="black" /><line x1="340" y1="60" x2="350" y2="60" stroke="black" />
<line x1="350" y1="50" x2="360" y2="50" stroke="black" /><line x1="360" y1="50" x2="370" y2="50" stroke="black" />
<line x1="370" y1="50" x2="380" y2="50" stroke="black" /><line x1="370" y1="60" x2="380" y2="60" stroke="black" />
<line x1="380" y1="50" x2="390" y2="50" stroke="black" /><line x1="390" y1="50" x2="390" y2="60" stroke="black" />
<line x1="390" y1="50" x2="400" y2="50" stroke="black" /><line x1="400" y1="50" x2="410" y2="50" stroke="black" />
<line x1="400" y1="60" x2="410" y2="60" stroke="black" /><line x1="410" y1="50" x2="420" y2="50" stroke="black" />
<line x1="420" y1="50" x2="430" y2="50" stroke="black" /><line x1="430" y1="50" x2="430" y2="60" stroke="black" />
<line x1="430" y1="50" x2="440" y2="50" stroke="black" /><line x1="440" y1="50" x2="450" y2="50" stroke="black" />
<line x1="440" y1="60" x2="450" y2="60" stroke="black" /><line x1="450" y1="50" x2="460" y2="50" stroke="black" />
<line x1="460" y1="50" x2="460" y2="60" stroke="black" /><line x1="460" y1="50" x2="470" y2="50" stroke="black" />
<line x1="460" y1="60" x2="470" y2="60" stroke="black" /><line x1="470" y1="50" x2="480" y2="50" stroke="black" />
<line x1="470" y1="60" x2="480" y2="60" stroke="black" /><line x1="480" y1="50" x2="490" y2="50" stroke="black" />
<line x1="480" y1="60" x2="490" y2="60" stroke="black" /><line x1="490" y1="50" x2="500" y2="50" stroke="black" />
<line x1="0" y1="20" x2="10" y2="20" stroke="black" /><line x1="20" y1="10" x2="20" y2="20" stroke="black" />
<line x1="30" y1="10" x2="30" y2="20" stroke="black" /><line x1="20" y1="20" x2="30" y2="20" stroke="black" />
<line x1="40" y1="10" x2="40" y2="20" stroke="black" /><line x1="40" y1="20" x2="50" y2="20" stroke="black" />
<line x1="50" y1="20" x2="60" y2="20" stroke="black" /><line x1="70" y1="10" x2="70" y2="20" stroke="black" />
<line x1="70" y1="20" x2="80" y2="20" stroke="black" /><line x1="80" y1="20" x2="90" y2="20" stroke="black" />
<line x1="100" y1="10" x2="100" y2="20" stroke="black" /><line x1="110" y1="20" x2="120" y2="20" stroke="black" />
<line x1="120" y1="20" x2="130" y2="20" stroke="black" /><line x1="140" y1="10" x2="140" y2="20" stroke="black" />
<line x1="150" y1="10" x2="150" y2="20" stroke="black" /><line x1="150" y1="20" x2="160" y2="20" stroke="black" />
<line x1="170" y1="10" x2="170" y2="20" stroke="black" /><line x1="160" y1="20" x2="170" y2="20" stroke="black" />
<line x1="180" y1="20" x2="190" y2="20" stroke="black" /><line x1="200" y1="10" x2="200" y2="20" stroke="black" />
<line x1="210" y1="10" x2="210" y2="20" stroke="black" /><line x1="230" y1="10" x2="230" y2="20" stroke="black" />
<line x1="220" y1="20" x2="230" y2="20" stroke="black" /><line x1="240" y1="10" x2="240" y2="20" stroke="black" />
<line x1="240" y1="20" x2="250" y2="20" stroke="black" /><line x1="260" y1="10" x2="260" y2="20" stroke="black" />
<line x1="250" y1="20" x2="260" y2="20" stroke="black" /><line x1="260" y1="20" x2="270" y2="20" stroke="black" />
<line x1="280" y1="10" x2="280" y2="20" stroke="black" /><line x1="270" y1="20" x2="280" y2="20" stroke="black" />
<line x1="290" y1="10" x2="290" y2="20" stroke="black" /><line x1="290" y1="20" x2="300" y2="20" stroke="black" />
<line x1="320" y1="10" x2="320" y2="20" stroke="black" /><line x1="310" y1="20" x2="320" y2="20" stroke="black" />
<line x1="330" y1="10" x2="330" y2="20" stroke="black" /><line x1="340" y1="10" x2="340" y2="20" stroke="black" />
<line x1="350" y1="10" x2="350" y2="20" stroke="black" /><line x1="340" y1="20" x2="350" y2="20" stroke="black" />
<line x1="360" y1="10" x2="360" y2="20" stroke="black" /><line x1="370" y1="10" x2="370" y2="20" stroke="black" />
<line x1="370" y1="20" x2="380" y2="20" stroke="black" /><line x1="380" y1="20" x2="390" y2="20" stroke="black" />
<line x1="400" y1="10" x2="400" y2="20" stroke="black" /><line x1="390" y1="20" x2="400" y2="20" stroke="black" />
<line x1="410" y1="10" x2="410" y2="20" stroke="black" /><line x1="400" y1="20" x2="410" y2="20" stroke="black" />
<line x1="410" y1="20" x2="420" y2="20" stroke="black" /><line x1="420" y1="20" x2="430" y2="20" stroke="black" />
<line x1="440" y1="10" x2="440" y2="20" stroke="black" /><line x1="450" y1="10" x2="450" y2="20" stroke="black" />
<line x1="450" y1="20" x2="460" y2="20" stroke="black" /><line x1="470" y1="10" x2="470" y2="20" stroke="black" />
<line x1="460" y1="20" x2="470" y2="20" stroke="black" /><line x1="470" y1="20" x2="480" y2="20" stroke="black" />
<line x1="500" y1="10" x2="500" y2="20" stroke="black" /><line x1="10" y1="60" x2="10" y2="70" stroke="black" />
<line x1="30" y1="60" x2="30" y2="70" stroke="black" /><line x1="20" y1="70" x2="30" y2="70" stroke="black" />
<line x1="30" y1="70" x2="40" y2="70" stroke="black" /><line x1="50" y1="60" x2="50" y2="70" stroke="black" />
<line x1="40" y1="70" x2="50" y2="70" stroke="black" /><line x1="50" y1="70" x2="60" y2="70" stroke="black" />
<line x1="60" y1="70" x2="70" y2="70" stroke="black" /><line x1="80" y1="60" x2="80" y2="70" stroke="black" />
<line x1="100" y1="60" x2="100" y2="70" stroke="black" /><line x1="90" y1="70" x2="100" y2="70" stroke="black" />
<line x1="110" y1="70" x2="120" y2="70" stroke="black" /><line x1="120" y1="70" x2="130" y2="70" stroke="black" />
<line x1="140" y1="60" x2="140" y2="70" stroke="black" /><line x1="130" y1="70" x2="140" y2="70" stroke="black" />
<line x1="140" y1="70" x2="150" y2="70" stroke="black" /><line x1="160" y1="60" x2="160" y2="70" stroke="black" />
<line x1="160" y1="70" x2="170" y2="70" stroke="black" /><line x1="170" y1="70" x2="180" y2="70" stroke="black" />
<line x1="190" y1="60" x2="190" y2="70" stroke="black" /><line x1="210" y1="60" x2="210" y2="70" stroke="black" />
<line x1="200" y1="70" x2="210" y2="70" stroke="black" /><line x1="220" y1="60" x2="220" y2="70" stroke="black" />
<line x1="220" y1="70" x2="230" y2="70" stroke="black" /><line x1="240" y1="60" x2="240" y2="70" stroke="black" />
<line x1="230" y1="70" x2="240" y2="70" stroke="black" /><line x1="250" y1="60" x2="250" y2="70" stroke="black" />
<line x1="250" y1="70" x2="260" y2="70" stroke="black" /><line x1="270" y1="60" x2="270" y2="70" stroke="black" />
<line x1="280" y1="60" x2="280" y2="70" stroke="black" /><line x1="280" y1="70" x2="290" y2="70" stroke="black" />
<line x1="300" y1="60" x2="300" y2="70" stroke="black" /><line x1="290" y1="70" x2="300" y2="70" stroke="black" />
<line x1="310" y1="60" x2="310" y2="70" stroke="black" /><line x1="320" y1="60" x2="320" y2="70" stroke="black" />
<line x1="330" y1="60" x2="330" y2="70" stroke="black" /><line x1="320" y1="70" x2="330" y2="70" stroke="black" />
<line x1="350" y1="60" x2="350" y2="70" stroke="black" /><line x1="360" y1="60" x2="360" y2="70" stroke="black" />
<line x1="370" y1="60" x2="370" y2="70" stroke="black" /><line x1="370" y1="70" x2="380" y2="70" stroke="black" />
<line x1="390" y1="60" x2="390" y2="70" stroke="black" /><line x1="400" y1="60" x2="400" y2="70" stroke="black" />
<line x1="390" y1="70" x2="400" y2="70" stroke="black" /><line x1="420" y1="60" x2="420" y2="70" stroke="black" />
<line x1="410" y1="70" x2="420" y2="70" stroke="black" /><line x1="430" y1="60" x2="430" y2="70" stroke="black" />
<line x1="430" y1="70" x2="440" y2="70" stroke="black" /><line x1="450" y1="60" x2="450" y2="70" stroke="black" />
<line x1="450" y1="70" x2="460" y2="70" stroke="black" /><line x1="460" y1="70" x2="470" y2="70" stroke="black" />
<line x1="470" y1="70" x2="480" y2="70" stroke="black" /><line x1="480" y1="70" x2="490" y2="70" stroke="black" />
<line x1="500" y1="60" x2="500" y2="70" stroke="black" /><line x1="490" y1="70" x2="500" y2="70" stroke="black" />
<line x1="20" y1="20" x2="20" y2="30" stroke="black" /><line x1="10" y1="30" x2="20" y2="30" stroke="black" />
<line x1="40" y1="20" x2="40" y2="30" stroke="black" /><line x1="30" y1="30" x2="40" y2="30" stroke="black" />
<line x1="60" y1="20" x2="60" y2="30" stroke="black" /><line x1="70" y1="20" x2="70" y2="30" stroke="black" />
<line x1="80" y1="30" x2="90" y2="30" stroke="black" /><line x1="100" y1="20" x2="100" y2="30" stroke="black" />
<line x1="90" y1="30" x2="100" y2="30" stroke="black" /><line x1="100" y1="30" x2="110" y2="30" stroke="black" />
<line x1="110" y1="30" x2="120" y2="30" stroke="black" /><line x1="130" y1="20" x2="130" y2="30" stroke="black" />
<line x1="140" y1="20" x2="140" y2="30" stroke="black" /><line x1="140" y1="30" x2="150" y2="30" stroke="black" />
<line x1="150" y1="30" x2="160" y2="30" stroke="black" /><line x1="160" y1="30" x2="170" y2="30" stroke="black" />
<line x1="180" y1="20" x2="180" y2="30" stroke="black" /><line x1="170" y1="30" x2="180" y2="30" stroke="black" />
<line x1="200" y1="20" x2="200" y2="30" stroke="black" /><line x1="190" y1="30" x2="200" y2="30" stroke="black" />
<line x1="210" y1="20" x2="210" y2="30" stroke="black" /><line x1="220" y1="20" x2="220" y2="30" stroke="black" />
<line x1="240" y1="20" x2="240" y2="30" stroke="black" /><line x1="230" y1="30" x2="240" y2="30" stroke="black" />
<line x1="250" y1="20" x2="250" y2="30" stroke="black" /><line x1="280" y1="20" x2="280" y2="30" stroke="black" />
<line x1="270" y1="30" x2="280" y2="30" stroke="black" /><line x1="280" y1="30" x2="290" y2="30" stroke="black" />
<line x1="300" y1="20" x2="300" y2="30" stroke="black" /><line x1="300" y1="30" x2="310" y2="30" stroke="black" />
<line x1="310" y1="30" x2="320" y2="30" stroke="black" /><line x1="330" y1="20" x2="330" y2="30" stroke="black" />
<line x1="320" y1="30" x2="330" y2="30" stroke="black" /><line x1="340" y1="20" x2="340" y2="30" stroke="black" />
<line x1="360" y1="20" x2="360" y2="30" stroke="black" /><line x1="350" y1="30" x2="360" y2="30" stroke="black" />
<line x1="360" y1="30" x2="370" y2="30" stroke="black" /><line x1="380" y1="20" x2="380" y2="30" stroke="black" />
<line x1="390" y1="30" x2="400" y2="30" stroke="black" /><line x1="410" y1="30" x2="420" y2="30" stroke="black" />
<line x1="430" y1="20" x2="430" y2="30" stroke="black" /><line x1="430" y1="30" x2="440" y2="30" stroke="black" />
<line x1="440" y1="30" x2="450" y2="30" stroke="black" /><line x1="450" y1="30" x2="460" y2="30" stroke="black" />
<line x1="460" y1="30" x2="470" y2="30" stroke="black" /><line x1="470" y1="30" x2="480" y2="30" stroke="black" />
<line x1="490" y1="20" x2="490" y2="30" stroke="black" /><line x1="480" y1="30" x2="490" y2="30" stroke="black" />
<line x1="500" y1="20" x2="500" y2="30" stroke="black" /><line x1="490" y1="30" x2="500" y2="30" stroke="black" />
<line x1="0" y1="80" x2="10" y2="80" stroke="black" /><line x1="10" y1="80" x2="20" y2="80" stroke="black" />
<line x1="20" y1="80" x2="30" y2="80" stroke="black" /><line x1="40" y1="70" x2="40" y2="80" stroke="black" />
<line x1="50" y1="80" x2="60" y2="80" stroke="black" /><line x1="70" y1="70" x2="70" y2="80" stroke="black" />
<line x1="80" y1="70" x2="80" y2="80" stroke="black" /><line x1="80" y1="80" x2="90" y2="80" stroke="black" />
<line x1="90" y1="80" x2="100" y2="80" stroke="black" /><line x1="110" y1="70" x2="110" y2="80" stroke="black" />
<line x1="100" y1="80" x2="110" y2="80" stroke="black" /><line x1="120" y1="70" x2="120" y2="80" stroke="black" />
<line x1="130" y1="80" x2="140" y2="80" stroke="black" /><line x1="140" y1="80" x2="150" y2="80" stroke="black" />
<line x1="160" y1="70" x2="160" y2="80" stroke="black" /><line x1="150" y1="80" x2="160" y2="80" stroke="black" />
<line x1="180" y1="70" x2="180" y2="80" stroke="black" /><line x1="190" y1="70" x2="190" y2="80" stroke="black" />
<line x1="200" y1="70" x2="200" y2="80" stroke="black" /><line x1="200" y1="80" x2="210" y2="80" stroke="black" />
<line x1="220" y1="80" x2="230" y2="80" stroke="black" /><line x1="230" y1="80" x2="240" y2="80" stroke="black" />
<line x1="240" y1="80" x2="250" y2="80" stroke="black" /><line x1="260" y1="70" x2="260" y2="80" stroke="black" />
<line x1="250" y1="80" x2="260" y2="80" stroke="black" /><line x1="260" y1="80" x2="270" y2="80" stroke="black" />
<line x1="280" y1="70" x2="280" y2="80" stroke="black" /><line x1="270" y1="80" x2="280" y2="80" stroke="black" />
<line x1="300" y1="70" x2="300" y2="80" stroke="black" /><line x1="310" y1="70" x2="310" y2="80" stroke="black" />
<line x1="320" y1="80" x2="330" y2="80" stroke="black" /><line x1="340" y1="70" x2="340" y2="80" stroke="black" />
<line x1="330" y1="80" x2="340" y2="80" stroke="black" /><line x1="340" y1="80" x2="350" y2="80" stroke="black" />
<line x1="360" y1="70" x2="360" y2="80" stroke="black" /><line x1="350" y1="80" x2="360" y2="80" stroke="black" />
<line x1="360" y1="80" x2="370" y2="80" stroke="black" /><line x1="380" y1="70" x2="380" y2="80" stroke="black" />
<line x1="390" y1="70" x2="390" y2="80" stroke="black" /><line x1="410" y1="70" x2="410" y2="80" stroke="black" />
<line x1="400" y1="80" x2="410" y2="80" stroke="black" /><line x1="420" y1="70" x2="420" y2="80" stroke="black" />
<line x1="420" y1="80" x2="430" y2="80" stroke="black" /><line x1="440" y1="70" x2="440" y2="80" stroke="black" />
<line x1="460" y1="70" x2="460" y2="80" stroke="black" /><line x1="470" y1="80" x2="480" y2="80" stroke="black" />
<line x1="480" y1="80" x2="490" y2="80" stroke="black" /><line x1="500" y1="70" x2="500" y2="80" stroke="black" />
<line x1="0" y1="40" x2="10" y2="40" stroke="black" /><line x1="10" y1="40" x2="20" y2="40" stroke="black" />
<line x1="30" y1="30" x2="30" y2="40" stroke="black" /><line x1="20" y1="40" x2="30" y2="40" stroke="black" />
<line x1="40" y1="30" x2="40" y2="40" stroke="black" /><line x1="50" y1="30" x2="50" y2="40" stroke="black" />
<line x1="50" y1="40" x2="60" y2="40" stroke="black" /><line x1="70" y1="30" x2="70" y2="40" stroke="black" />
<line x1="60" y1="40" x2="70" y2="40" stroke="black" /><line x1="70" y1="40" x2="80" y2="40" stroke="black" />
<line x1="90" y1="30" x2="90" y2="40" stroke="black" /><line x1="100" y1="40" x2="110" y2="40" stroke="black" />
<line x1="110" y1="40" x2="120" y2="40" stroke="black" /><line x1="130" y1="30" x2="130" y2="40" stroke="black" />
<line x1="120" y1="40" x2="130" y2="40" stroke="black" /><line x1="130" y1="40" x2="140" y2="40" stroke="black" />
<line x1="140" y1="40" x2="150" y2="40" stroke="black" /><line x1="150" y1="40" x2="160" y2="40" stroke="black" />
<line x1="180" y1="30" x2="180" y2="40" stroke="black" /><line x1="170" y1="40" x2="180" y2="40" stroke="black" />
<line x1="190" y1="30" x2="190" y2="40" stroke="black" /><line x1="210" y1="30" x2="210" y2="40" stroke="black" />
<line x1="200" y1="40" x2="210" y2="40" stroke="black" /><line x1="210" y1="40" x2="220" y2="40" stroke="black" />
<line x1="230" y1="30" x2="230" y2="40" stroke="black" /><line x1="220" y1="40" x2="230" y2="40" stroke="black" />
<line x1="240" y1="30" x2="240" y2="40" stroke="black" /><line x1="260" y1="30" x2="260" y2="40" stroke="black" />
<line x1="250" y1="40" x2="260" y2="40" stroke="black" /><line x1="270" y1="30" x2="270" y2="40" stroke="black" />
<line x1="290" y1="30" x2="290" y2="40" stroke="black" /><line x1="300" y1="30" x2="300" y2="40" stroke="black" />
<line x1="310" y1="40" x2="320" y2="40" stroke="black" /><line x1="330" y1="30" x2="330" y2="40" stroke="black" />
<line x1="340" y1="30" x2="340" y2="40" stroke="black" /><line x1="350" y1="30" x2="350" y2="40" stroke="black" />
<line x1="370" y1="30" x2="370" y2="40" stroke="black" /><line x1="370" y1="40" x2="380" y2="40" stroke="black" />
<line x1="390" y1="30" x2="390" y2="40" stroke="black" /><line x1="380" y1="40" x2="390" y2="40" stroke="black" />
<line x1="410" y1="30" x2="410" y2="40" stroke="black" /><line x1="400" y1="40" x2="410" y2="40" stroke="black" />
<line x1="420" y1="30" x2="420" y2="40" stroke="black" /><line x1="420" y1="40" x2="430" y2="40" stroke="black" />
<line x1="430" y1="40" x2="440" y2="40" stroke="black" /><line x1="450" y1="30" x2="450" y2="40" stroke="black" />
<line x1="470" y1="30" x2="470" y2="40" stroke="black" /><line x1="480" y1="40" x2="490" y2="40" stroke="black" />
<line x1="500" y1="30" x2="500" y2="40" stroke="black" /><line x1="20" y1="80" x2="20" y2="90" stroke="black" />
<line x1="20" y1="90" x2="30" y2="90" stroke="black" /><line x1="40" y1="80" x2="40" y2="90" stroke="black" />
<line x1="30" y1="90" x2="40" y2="90" stroke="black" /><line x1="50" y1="80" x2="50" y2="90" stroke="black" />
<line x1="60" y1="80" x2="60" y2="90" stroke="black" /><line x1="70" y1="80" x2="70" y2="90" stroke="black" />
<line x1="70" y1="90" x2="80" y2="90" stroke="black" /><line x1="80" y1="90" x2="90" y2="90" stroke="black" />
<line x1="90" y1="90" x2="100" y2="90" stroke="black" /><line x1="100" y1="90" x2="110" y2="90" stroke="black" />
<line x1="120" y1="80" x2="120" y2="90" stroke="black" /><line x1="110" y1="90" x2="120" y2="90" stroke="black" />
<line x1="130" y1="80" x2="130" y2="90" stroke="black" /><line x1="140" y1="80" x2="140" y2="90" stroke="black" />
<line x1="160" y1="80" x2="160" y2="90" stroke="black" /><line x1="170" y1="80" x2="170" y2="90" stroke="black" />
<line x1="170" y1="90" x2="180" y2="90" stroke="black" /><line x1="190" y1="80" x2="190" y2="90" stroke="black" />
<line x1="180" y1="90" x2="190" y2="90" stroke="black" /><line x1="190" y1="90" x2="200" y2="90" stroke="black" />
<line x1="210" y1="80" x2="210" y2="90" stroke="black" /><line x1="220" y1="80" x2="220" y2="90" stroke="black" />
<line x1="230" y1="90" x2="240" y2="90" stroke="black" /><line x1="250" y1="80" x2="250" y2="90" stroke="black" />
<line x1="270" y1="90" x2="280" y2="90" stroke="black" /><line x1="290" y1="80" x2="290" y2="90" stroke="black" />
<line x1="280" y1="90" x2="290" y2="90" stroke="black" /><line x1="300" y1="80" x2="300" y2="90" stroke="black" />
<line x1="290" y1="90" x2="300" y2="90" stroke="black" /><line x1="310" y1="80" x2="310" y2="90" stroke="black" />
<line x1="320" y1="80" x2="320" y2="90" stroke="black" /><line x1="310" y1="90" x2="320" y2="90" stroke="black" />
<line x1="340" y1="80" x2="340" y2="90" stroke="black" /><line x1="350" y1="90" x2="360" y2="90" stroke="black" />
<line x1="370" y1="80" x2="370" y2="90" stroke="black" /><line x1="380" y1="80" x2="380" y2="90" stroke="black" />
<line x1="380" y1="90" x2="390" y2="90" stroke="black" /><line x1="400" y1="80" x2="400" y2="90" stroke="black" />
<line x1="390" y1="90" x2="400" y2="90" stroke="black" /><line x1="410" y1="80" x2="410" y2="90" stroke="black" />
<line x1="420" y1="90" x2="430" y2="90" stroke="black" /><line x1="440" y1="80" x2="440" y2="90" stroke="black" />
<line x1="430" y1="90" x2="440" y2="90" stroke="black" /><line x1="450" y1="80" x2="450" y2="90" stroke="black" />
<line x1="440" y1="90" x2="450" y2="90" stroke="black" /><line x1="460" y1="80" x2="460" y2="90" stroke="black" />
<line x1="470" y1="80" x2="470" y2="90" stroke="black" /><line x1="470" y1="90" x2="480" y2="90" stroke="black" />
<line x1="480" y1="90" x2="490" y2="90" stroke="black" /><line x1="500" y1="80" x2="500" y2="90" stroke="black" />
<line x1="490" y1="90" x2="500" y2="90" stroke="black" /><line x1="0" y1="50" x2="10" y2="50" stroke="black" />
<line x1="10" y1="50" x2="20" y2="50" stroke="black" /><line x1="20" y1="50" x2="30" y2="50" stroke="black" />
<line x1="30" y1="50" x2="40" y2="50" stroke="black" /><line x1="40" y1="50" x2="50" y2="50" stroke="black" />
<line x1="50" y1="50" x2="60" y2="50" stroke="black" /><line x1="60" y1="50" x2="70" y2="50" stroke="black" />
<line x1="70" y1="50" x2="80" y2="50" stroke="black" /><line x1="90" y1="40" x2="90" y2="50" stroke="black" />
<line x1="80" y1="50" x2="90" y2="50" stroke="black" /><line x1="90" y1="50" x2="100" y2="50" stroke="black" />
<line x1="100" y1="50" x2="110" y2="50" stroke="black" /><line x1="110" y1="50" x2="120" y2="50" stroke="black" />
<line x1="120" y1="50" x2="130" y2="50" stroke="black" /><line x1="130" y1="50" x2="140" y2="50" stroke="black" />
<line x1="140" y1="50" x2="150" y2="50" stroke="black" /><line x1="160" y1="40" x2="160" y2="50" stroke="black" />
<line x1="150" y1="50" x2="160" y2="50" stroke="black" /><line x1="160" y1="50" x2="170" y2="50" stroke="black" />
<line x1="170" y1="50" x2="180" y2="50" stroke="black" /><line x1="180" y1="50" x2="190" y2="50" stroke="black" />
<line x1="200" y1="40" x2="200" y2="50" stroke="black" /><line x1="190" y1="50" x2="200" y2="50" stroke="black" />
<line x1="200" y1="50" x2="210" y2="50" stroke="black" /><line x1="210" y1="50" x2="220" y2="50" stroke="black" />
<line x1="220" y1="50" x2="230" y2="50" stroke="black" /><line x1="230" y1="50" x2="240" y2="50" stroke="black" />
<line x1="240" y1="50" x2="250" y2="50" stroke="black" /><line x1="260" y1="40" x2="260" y2="50" stroke="black" />
<line x1="250" y1="50" x2="260" y2="50" stroke="black" /><line x1="260" y1="50" x2="270" y2="50" stroke="black" />
<line x1="280" y1="40" x2="280" y2="50" stroke="black" /><line x1="270" y1="50" x2="280" y2="50" stroke="black" />
<line x1="280" y1="50" x2="290" y2="50" stroke="black" /><line x1="290" y1="50" x2="300" y2="50" stroke="black" />
<line x1="310" y1="40" x2="310" y2="50" stroke="black" /><line x1="300" y1="50" x2="310" y2="50" stroke="black" />
<line x1="310" y1="50" x2="320" y2="50" stroke="black" /><line x1="320" y1="50" x2="330" y2="50" stroke="black" />
<line x1="340" y1="40" x2="340" y2="50" stroke="black" /><line x1="330" y1="50" x2="340" y2="50" stroke="black" />
<line x1="340" y1="50" x2="350" y2="50" stroke="black" /><line x1="360" y1="40" x2="360" y2="50" stroke="black" />
<line x1="350" y1="50" x2="360" y2="50" stroke="black" /><line x1="360" y1="50" x2="370" y2="50" stroke="black" />
<line x1="370" y1="50" x2="380" y2="50" stroke="black" /><line x1="380" y1="50" x2="390" y2="50" stroke="black" />
<line x1="400" y1="40" x2="400" y2="50" stroke="black" /><line x1="390" y1="50" x2="400" y2="50" stroke="black" />
<line x1="400" y1="50" x2="410" y2="50" stroke="black" /><line x1="410" y1="50" x2="420" y2="50" stroke="black" />
<line x1="420" y1="50" x2="430" y2="50" stroke="black" /><line x1="430" y1="50" x2="440" y2="50" stroke="black" />
<line x1="440" y1="50" x2="450" y2="50" stroke="black" /><line x1="460" y1="40" x2="460" y2="50" stroke="black" />
<line x1="450" y1="50" x2="460" y2="50" stroke="black" /><line x1="460" y1="50" x2="470" y2="50" stroke="black" />
<line x1="480" y1="40" x2="480" y2="50" stroke="black" /><line x1="470" y1="50" x2="480" y2="50" stroke="black" />
<line x1="480" y1="50" x2="490" y2="50" stroke="black" /><line x1="490" y1="50" x2="500" y2="50" stroke="black" />
<line x1="10" y1="90" x2="10" y2="100" stroke="black" /><line x1="0" y1="100" x2="10" y2="100" stroke="black" />
<line x1="10" y1="100" x2="20" y2="100" stroke="black" /><line x1="20" y1="100" x2="30" y2="100" stroke="black" />
<line x1="30" y1="100" x2="40" y2="100" stroke="black" /><line x1="50" y1="90" x2="50" y2="100" stroke="black" />
<line x1="40" y1="100" x2="50" y2="100" stroke="black" /><line x1="50" y1="100" x2="60" y2="100" stroke="black" />
<line x1="60" y1="100" x2="70" y2="100" stroke="black" /><line x1="70" y1="100" x2="80" y2="100" stroke="black" />
<line x1="80" y1="100" x2="90" y2="100" stroke="black" /><line x1="90" y1="100" x2="100" y2="100" stroke="black" />
<line x1="100" y1="100" x2="110" y2="100" stroke="black" /><line x1="110" y1="100" x2="120" y2="100" stroke="black" />
<line x1="130" y1="90" x2="130" y2="100" stroke="black" /><line x1="120" y1="100" x2="130" y2="100" stroke="black" />
<line x1="130" y1="100" x2="140" y2="100" stroke="black" /><line x1="150" y1="90" x2="150" y2="100" stroke="black" />
<line x1="140" y1="100" x2="150" y2="100" stroke="black" /><line x1="150" y1="100" x2="160" y2="100" stroke="black" />
<line x1="160" y1="100" x2="170" y2="100" stroke="black" /><line x1="170" y1="100" x2="180" y2="100" stroke="black" />
<line x1="180" y1="100" x2="190" y2="100" stroke="black" /><line x1="190" y1="100" x2="200" y2="100" stroke="black" />
<line x1="210" y1="90" x2="210" y2="100" stroke="black" /><line x1="200" y1="100" x2="210" y2="100" stroke="black" />
<line x1="210" y1="100" x2="220" y2="100" stroke="black" /><line x1="220" y1="100" x2="230" y2="100" stroke="black" />
<line x1="240" y1="90" x2="240" y2="100" stroke="black" /><line x1="230" y1="100" x2="240" y2="100" stroke="black" />
<line x1="240" y1="100" x2="250" y2="100" stroke="black" /><line x1="260" y1="90" x2="260" y2="100" stroke="black" />
<line x1="250" y1="100" x2="260" y2="100" stroke="black" /><line x1="260" y1="100" x2="270" y2="100" stroke="black" />
<line x1="270" y1="100" x2="280" y2="100" stroke="black" /><line x1="280" y1="100" x2="290" y2="100" stroke="black" />
<line x1="290" y1="100" x2="300" y2="100" stroke="black" /><line x1="300" y1="100" x2="310" y2="100" stroke="black" />
<line x1="310" y1="100" x2="320" y2="100" stroke="black" /><line x1="330" y1="90" x2="330" y2="100" stroke="black" />
<line x1="320" y1="100" x2="330" y2="100" stroke="black" /><line x1="330" y1="100" x2="340" y2="100" stroke="black" />
<line x1="350" y1="90" x2="350" y2="100" stroke="black" /><line x1="340" y1="100" x2="350" y2="100" stroke="black" />
<line x1="350" y1="100" x2="360" y2="100" stroke="black" /><line x1="360" y1="100" x2="370" y2="100" stroke="black" />
<line x1="380" y1="90" x2="380" y2="100" stroke="black" /><line x1="370" y1="100" x2="380" y2="100" stroke="black" />
<line x1="380" y1="100" x2="390" y2="100" stroke="black" /><line x1="390" y1="100" x2="400" y2="100" stroke="black" />
<line x1="400" y1="100" x2="410" y2="100" stroke="black" /><line x1="410" y1="100" x2="420" y2="100" stroke="black" />
<line x1="420" y1="100" x2="430" y2="100" stroke="black" /><line x1="430" y1="100" x2="440" y2="100" stroke="black" />
<line x1="440" y1="100" x2="450" y2="100" stroke="black" /><line x1="460" y1="90" x2="460" y2="100" stroke="black" />
<line x1="450" y1="100" x2="460" y2="100" stroke="black" /><line x1="460" y1="100" x2="470" y2="100" stroke="black" />
<line x1="470" y1="100" x2="480" y2="100" stroke="black" /><line x1="480" y1="100" x2="490" y2="100" stroke="black" />
<line x1="490" y1="100" x2="500" y2="100" stroke="black" /></g>
</svg>
