<svg xmlns="http://www.w3.org/2000/svg" xmlns:svg="http://www.w3.org/2000/svg" xmlns:xlink="http://www.w3.org/1999/xlink" width="200" height="180"><g><line x1="40" y1="0" x2="50" y2="0" stroke="black" /><line x1="40" y1="0" x2="40" y2="10" stroke="black" />
<line x1="50" y1="0" x2="60" y2="0" stroke="black" /><line x1="60" y1="0" x2="70" y2="0" stroke="black" />
<line x1="70" y1="0" x2="70" y2="10" stroke="black" /><line x1="130" y1="0" x2="140" y2="0" stroke="black" />
<line x1="130" y1="0" x2="130" y2="10" stroke="black" /><line x1="140" y1="0" x2="150" y2="0" stroke="black" />
<line x1="140" y1="10" x2="150" y2="10" stroke="black" /><line x1="150" y1="0" x2="160" y2="0" stroke="black" />
<line x1="160" y1="0" x2="160" y2="10" stroke="black" /><line x1="20" y1="10" x2="30" y2="10" stroke="black" />
<line x1="20" y1="10" x2="20" y2="20" stroke="black" /><line x1="30" y1="10" x2="40" y2="10" stroke="black" />
<line x1="30" y1="20" x2="40" y2="20" stroke="black" /><line x1="50" y1="10" x2="50" y2="20" stroke="black" />
<line x1="40" y1="20" x2="50" y2="20" stroke="black" /><line x1="60" y1="10" x2="60" y2="20" stroke="black" />
<line x1="70" y1="10" x2="70" y2="20" stroke="black" /><line x1="70" y1="10" x2="80" y2="10" stroke="black" />
<line x1="70" y1="20" x2="80" y2="20" stroke="black" /><line x1="80" y1="10" x2="90" y2="10" stroke="black" />
<line x1="90" y1="10" x2="90" y2="20" stroke="black" /><line x1="110" y1="10" x2="120" y2="10" stroke="black" />
<line x1="110" y1="10" x2="110" y2="20" stroke="black" /><line x1="110" y1="20" x2="120" y2="20" stroke="black" />
<line x1="120" y1="10" x2="130" y2="10" stroke="black" /><line x1="120" y1="20" x2="130" y2="20" stroke="black" />
<line x1="140" y1="10" x2="140" y2="20" stroke="black" /><line x1="150" y1="10" x2="150" y2="20" stroke="black" />
<line x1="150" y1="20" x2="160" y2="20" stroke="black" /><line x1="160" y1="10" x2="170" y2="10" stroke="black" />
<line x1="170" y1="10" x2="170" y2="20" stroke="black" /><line x1="170" y1="10" x2="180" y2="10" stroke="black" />
<line x1="180" y1="10" x2="180" y2="20" stroke="black" /><line x1="10" y1="20" x2="20" y2="20" stroke="black" />
<line x1="10" y1="20" x2="10" y2="30" stroke="black" /><line x1="10" y1="30" x2="20" y2="30" stroke="black" />
<line x1="30" y1="20" x2="30" y2="30" stroke="black" /><line x1="20" y1="30" x2="30" y2="30" stroke="black" />
<line x1="50" y1="20" x2="50" y2="30" stroke="black" /><line x1="60" y1="20" x2="60" y2="30" stroke="black" />
<line x1="60" y1="30" x2="70" y2="30" stroke="black" /><line x1="80" y1="20" x2="80" y2="30" stroke="black" />
<line x1="90" y1="20" x2="100" y2="20" stroke="black" /><line x1="100" y1="20" x2="110" y2="20" stroke="black" />
<line x1="110" y1="20" x2="110" y2="30" stroke="black" /><line x1="100" y1="30" x2="110" y2="30" stroke="black" />
<line x1="120" y1="30" x2="130" y2="30" stroke="black" /><line x1="140" y1="20" x2="140" y2="30" stroke="black" />
<line x1="130" y1="30" x2="140" y2="30" stroke="black" /><line x1="140" y1="30" x2="150" y2="30" stroke="black" />
<line x1="160" y1="20" x2="160" y2="30" stroke="black" /><line x1="160" y1="30" x2="170" y2="30" stroke="black" />
<line x1="180" y1="20" x2="180" y2="30" stroke="black" /><line x1="180" y1="20" x2="190" y2="20" stroke="black" />
<line x1="190" y1="20" x2="190" y2="30" stroke="black" /><line x1="10" y1="30" x2="10" y2="40" stroke="black" />
<line x1="20" y1="40" x2="30" y2="40" stroke="black" /><line x1="40" y1="30" x2="40" y2="40" stroke="black" />
<line x1="30" y1="40" x2="40" y2="40" stroke="black" /><line x1="40" y1="40" x2="50" y2="40" stroke="black" />
<line x1="60" y1="30" x2="60" y2="40" stroke="black" /><line x1="50" y1="40" x2="60" y2="40" stroke="black" />
<line x1="70" y1="30" x2="70" y2="40" stroke="black" /><line x1="80" y1="30" x2="80" y2="40" stroke="black" />
<line x1="90" y1="30" x2="90" y2="40" stroke="black" /><line x1="100" y1="30" x2="100" y2="40" stroke="black" />
<line x1="120" y1="30" x2="120" y2="40" stroke="black" /><line x1="110" y1="40" x2="120" y2="40" stroke="black" />
<line x1="130" y1="40" x2="140" y2="40" stroke="black" /><line x1="140" y1="40" x2="150" y2="40" stroke="black" />
<line x1="170" y1="30" x2="170" y2="40" stroke="black" /><line x1="160" y1="40" x2="170" y2="40" stroke="black" />
<line x1="180" y1="30" x2="180" y2="40" stroke="black" /><line x1="190" y1="30" x2="190" y2="40" stroke="black" />
<line x1="0" y1="40" x2="10" y2="40" stroke="black" /><line x1="0" y1="40" x2="0" y2="50" stroke="black" />
<line x1="20" y1="40" x2="20" y2="50" stroke="black" /><line x1="40" y1="40" x2="40" y2="50" stroke="black" />
<line x1="40" y1="50" x2="50" y2="50" stroke="black" /><line x1="50" y1="50" x2="60" y2="50" stroke="black" />
<line x1="60" y1="50" x2="70" y2="50" stroke="black" /><line x1="80" y1="40" x2="80" y2="50" stroke="black" />
<line x1="90" y1="40" x2="90" y2="50" stroke="black" /><line x1="80" y1="50" x2="90" y2="50" stroke="black" />
<line x1="100" y1="40" x2="100" y2="50" stroke="black" /><line x1="100" y1="50" x2="110" y2="50" stroke="black" />
<line x1="120" y1="40" x2="120" y2="50" stroke="black" /><line x1="110" y1="50" x2="120" y2="50" stroke="black" />
<line x1="120" y1="50" x2="130" y2="50" stroke="black" /><line x1="130" y1="50" x2="140" y2="50" stroke="black" />
<line x1="150" y1="40" x2="150" y2="50" stroke="black" /><line x1="160" y1="40" x2="160" y2="50" stroke="black" />
<line x1="180" y1="40" x2="180" y2="50" stroke="black" /><line x1="170" y1="50" x2="180" y2="50" stroke="black" />
<line x1="190" y1="40" x2="200" y2="40" stroke="black" /><line x1="200" y1="40" x2="200" y2="50" stroke="black" />
<line x1="0" y1="50" x2="0" y2="60" stroke="black" /><line x1="10" y1="50" x2="10" y2="60" stroke="black" />
<line x1="20" y1="50" x2="20" y2="60" stroke="black" /><line x1="30" y1="50" x2="30" y2="60" stroke="black" />
<line x1="30" y1="60" x2="40" y2="60" stroke="black" /><line x1="40" y1="60" x2="50" y2="60" stroke="black" />
<line x1="50" y1="60" x2="60" y2="60" stroke="black" /><line x1="70" y1="50" x2="70" y2="60" stroke="black" />
<line x1="70" y1="60" x2="80" y2="60" stroke="black" /><line x1="80" y1="60" x2="90" y2="60" stroke="black" />
<line x1="100" y1="50" x2="100" y2="60" stroke="black" /><line x1="100" y1="60" x2="110" y2="60" stroke="black" />
<line x1="130" y1="50" x2="130" y2="60" stroke="black" /><line x1="150" y1="50" x2="150" y2="60" stroke="black" />
<line x1="140" y1="60" x2="150" y2="60" stroke="black" /><line x1="160" y1="50" x2="160" y2="60" stroke="black" />
<line x1="170" y1="50" x2="170" y2="60" stroke="black" /><line x1="190" y1="50" x2="190" y2="60" stroke="black" />
<line x1="180" y1="60" x2="190" y2="60" stroke="black" /><line x1="200" y1="50" x2="200" y2="60" stroke="black" />
<line x1="0" y1="60" x2="0" y2="70" stroke="black" /><line x1="10" y1="60" x2="10" y2="70" stroke="black" />
<line x1="0" y1="70" x2="10" y2="70" stroke="black" /><line x1="30" y1="60" x2="30" y2="70" stroke="black" />
<line x1="20" y1="70" x2="30" y2="70" stroke="black" /><line x1="50" y1="60" x2="50" y2="70" stroke="black" />
<line x1="60" y1="60" x2="60" y2="70" stroke="black" /><line x1="60" y1="70" x2="70" y2="70" stroke="black" />
<line x1="80" y1="60" x2="80" y2="70" stroke="black" /><line x1="90" y1="70" x2="100" y2="70" stroke="black" />
<line x1="100" y1="70" x2="110" y2="70" stroke="black" /><line x1="120" y1="60" x2="120" y2="70" stroke="black" />
<line x1="110" y1="70" x2="120" y2="70" stroke="black" /><line x1="130" y1="60" x2="130" y2="70" stroke="black" />
<line x1="140" y1="60" x2="140" y2="70" stroke="black" /><line x1="160" y1="60" x2="160" y2="70" stroke="black" />
<line x1="150" y1="70" x2="160" y2="70" stroke="black" /><line x1="160" y1="70" x2="170" y2="70" stroke="black" />
<line x1="180" y1="60" x2="180" y2="70" stroke="black" /><line x1="170" y1="70" x2="180" y2="70" stroke="black" />
<line x1="200" y1="60" x2="200" y2="70" stroke="black" /><line x1="190" y1="70" x2="200" y2="70" stroke="black" />
<line x1="10" y1="70" x2="10" y2="80" stroke="black" /><line x1="10" y1="80" x2="20" y2="80" stroke="black" />
<line x1="30" y1="70" x2="30" y2="80" stroke="black" /><line x1="40" y1="70" x2="40" y2="80" stroke="black" />
<line x1="40" y1="80" x2="50" y2="80" stroke="black" /><line x1="60" y1="70" x2="60" y2="80" stroke="black" />
<line x1="50" y1="80" x2="60" y2="80" stroke="black" /><line x1="80" y1="70" x2="80" y2="80" stroke="black" />
<line x1="70" y1="80" x2="80" y2="80" stroke="black" /><line x1="90" y1="70" x2="90" y2="80" stroke="black" />
<line x1="100" y1="70" x2="100" y2="80" stroke="black" /><line x1="120" y1="70" x2="120" y2="80" stroke="black" />
<line x1="120" y1="80" x2="130" y2="80" stroke="black" /><line x1="140" y1="70" x2="140" y2="80" stroke="black" />
<line x1="130" y1="80" x2="140" y2="80" stroke="black" /><line x1="140" y1="80" x2="150" y2="80" stroke="black" />
<line x1="150" y1="80" x2="160" y2="80" stroke="black" /><line x1="160" y1="80" x2="170" y2="80" stroke="black" />
<line x1="180" y1="70" x2="180" y2="80" stroke="black" /><line x1="170" y1="80" x2="180" y2="80" stroke="black" />
<line x1="190" y1="70" x2="190" y2="80" stroke="black" /><line x1="10" y1="80" x2="10" y2="90" stroke="black" />
<line x1="10" y1="90" x2="20" y2="90" stroke="black" /><line x1="30" y1="80" x2="30" y2="90" stroke="black" />
<line x1="40" y1="80" x2="40" y2="90" stroke="black" /><line x1="60" y1="80" x2="60" y2="90" stroke="black" />
<line x1="70" y1="80" x2="70" y2="90" stroke="black" /><line x1="80" y1="80" x2="80" y2="90" stroke="black" />
<line x1="90" y1="80" x2="90" y2="90" stroke="black" /><line x1="100" y1="80" x2="100" y2="90" stroke="black" />
<line x1="110" y1="80" x2="110" y2="90" stroke="black" /><line x1="110" y1="90" x2="120" y2="90" stroke="black" />
<line x1="120" y1="90" x2="130" y2="90" stroke="black" /><line x1="130" y1="90" x2="140" y2="90" stroke="black" />
<line x1="140" y1="90" x2="150" y2="90" stroke="black" /><line x1="160" y1="80" x2="160" y2="90" stroke="black" />
<line x1="170" y1="90" x2="180" y2="90" stroke="black" /><line x1="190" y1="80" x2="190" y2="90" stroke="black" />
<line x1="180" y1="90" x2="190" y2="90" stroke="black" /><line x1="20" y1="90" x2="20" y2="100" stroke="black" />
<line x1="20" y1="100" x2="30" y2="100" stroke="black" /><line x1="40" y1="90" x2="40" y2="100" stroke="black" />
<line x1="50" y1="90" x2="50" y2="100" stroke="black" /><line x1="50" y1="100" x2="60" y2="100" stroke="black" />
<line x1="70" y1="90" x2="70" y2="100" stroke="black" /><line x1="60" y1="100" x2="70" y2="100" stroke="black" />
<line x1="80" y1="90" x2="80" y2="100" stroke="black" /><line x1="90" y1="90" x2="90" y2="100" stroke="black" />
<line x1="100" y1="90" x2="100" y2="100" stroke="black" /><line x1="110" y1="90" x2="110" y2="100" stroke="black" />
<line x1="110" y1="100" x2="120" y2="100" stroke="black" /><line x1="120" y1="100" x2="130" y2="100" stroke="black" />
<line x1="150" y1="90" x2="150" y2="100" stroke="black" /><line x1="140" y1="100" x2="150" y2="100" stroke="black" />
<line x1="150" y1="100" x2="160" y2="100" stroke="black" /><line x1="160" y1="100" x2="170" y2="100" stroke="black" />
<line x1="180" y1="90" x2="180" y2="100" stroke="black" /><line x1="170" y1="100" x2="180" y2="100" stroke="black" />
<line x1="30" y1="100" x2="30" y2="110" stroke="black" /><line x1="40" y1="100" x2="40" y2="110" stroke="black" />
<line x1="30" y1="110" x2="40" y2="110" stroke="black" /><line x1="60" y1="100" x2="60" y2="110" stroke="black" />
<line x1="60" y1="110" x2="70" y2="110" stroke="black" /><line x1="70" y1="110" x2="80" y2="110" stroke="black" />
<line x1="80" y1="110" x2="90" y2="110" stroke="black" /><line x1="100" y1="100" x2="100" y2="110" stroke="black" />
<line x1="90" y1="110" x2="100" y2="110" stroke="black" /><line x1="100" y1="110" x2="110" y2="110" stroke="black" />
<line x1="110" y1="110" x2="120" y2="110" stroke="black" /><line x1="130" y1="100" x2="130" y2="110" stroke="black" />
<line x1="130" y1="110" x2="140" y2="110" stroke="black" /><line x1="170" y1="100" x2="170" y2="110" stroke="black" />
<line x1="160" y1="110" x2="170" y2="110" stroke="black" /><line x1="40" y1="110" x2="40" y2="120" stroke="black" />
<line x1="50" y1="110" x2="50" y2="120" stroke="black" /><line x1="40" y1="120" x2="50" y2="120" stroke="black" />
<line x1="60" y1="120" x2="70" y2="120" stroke="black" /><line x1="70" y1="120" x2="80" y2="120" stroke="black" />
<line x1="80" y1="120" x2="90" y2="120" stroke="black" /><line x1="90" y1="120" x2="100" y2="120" stroke="black" />
<line x1="100" y1="120" x2="110" y2="120" stroke="black" /><line x1="120" y1="110" x2="120" y2="120" stroke="black" />
<line x1="130" y1="110" x2="130" y2="120" stroke="black" /><line x1="150" y1="110" x2="150" y2="120" stroke="black" />
<line x1="160" y1="110" x2="160" y2="120" stroke="black" /><line x1="150" y1="120" x2="160" y2="120" stroke="black" />
<line x1="50" y1="120" x2="50" y2="130" stroke="black" /><line x1="50" y1="130" x2="60" y2="130" stroke="black" />
<line x1="70" y1="120" x2="70" y2="130" stroke="black" /><line x1="70" y1="130" x2="80" y2="130" stroke="black" />
<line x1="90" y1="120" x2="90" y2="130" stroke="black" /><line x1="120" y1="120" x2="120" y2="130" stroke="black" />
<line x1="110" y1="130" x2="120" y2="130" stroke="black" /><line x1="130" y1="120" x2="130" y2="130" stroke="black" />
<line x1="140" y1="120" x2="140" y2="130" stroke="black" /><line x1="150" y1="120" x2="150" y2="130" stroke="black" />
<line x1="140" y1="130" x2="150" y2="130" stroke="black" /><line x1="60" y1="130" x2="60" y2="140" stroke="black" />
<line x1="60" y1="140" x2="70" y2="140" stroke="black" /><line x1="70" y1="140" x2="80" y2="140" stroke="black" />
<line x1="90" y1="130" x2="90" y2="140" stroke="black" /><line x1="100" y1="130" x2="100" y2="140" stroke="black" />
<line x1="110" y1="130" x2="110" y2="140" stroke="black" /><line x1="100" y1="140" x2="110" y2="140" stroke="black" />
<line x1="120" y1="140" x2="130" y2="140" stroke="black" /><line x1="140" y1="130" x2="140" y2="140" stroke="black" />
<line x1="130" y1="140" x2="140" y2="140" stroke="black" /><line x1="70" y1="140" x2="70" y2="150" stroke="black" />
<line x1="70" y1="150" x2="80" y2="150" stroke="black" /><line x1="90" y1="140" x2="90" y2="150" stroke="black" />
<line x1="90" y1="150" x2="100" y2="150" stroke="black" /><line x1="100" y1="150" x2="110" y2="150" stroke="black" />
<line x1="110" y1="150" x2="120" y2="150" stroke="black" /><line x1="130" y1="140" x2="130" y2="150" stroke="black" />
<line x1="120" y1="150" x2="130" y2="150" stroke="black" /><line x1="80" y1="150" x2="80" y2="160" stroke="black" />
<line x1="80" y1="160" x2="90" y2="160" stroke="black" /><line x1="100" y1="150" x2="100" y2="160" stroke="black" />
<line x1="120" y1="150" x2="120" y2="160" stroke="black" /><line x1="110" y1="160" x2="120" y2="160" stroke="black" />
<line x1="90" y1="160" x2="90" y2="170" stroke="black" /><line x1="90" y1="170" x2="100" y2="170" stroke="black" />
<line x1="110" y1="160" x2="110" y2="170" stroke="black" /><line x1="100" y1="170" x2="110" y2="170" stroke="black" />
</g>
</svg>
