<svg xmlns="http://www.w3.org/2000/svg" xmlns:svg="http://www.w3.org/2000/svg" xmlns:xlink="http://www.w3.org/1999/xlink" width="161" height="161"><g><text x="75" y="85" /><line x1="90" y1="80" x2="85" y2="88.66025403784438" stroke="black" />
<line x1="85" y1="88.66025403784438" x2="90" y2="97.32050807568876" stroke="black" />
<line x1="85" y1="88.66025403784438" x2="75" y2="88.66025403784438" stroke="black" />
<line x1="75" y1="88.66025403784438" x2="70" y2="97.32050807568878" stroke="black" />
<line x1="75" y1="88.66025403784438" x2="70" y2="80" stroke="black" /><line x1="70" y1="80" x2="60" y2="80" stroke="black" />
<line x1="70" y1="80" x2="75" y2="71.33974596215562" stroke="black" /><line x1="75" y1="71.33974596215562" x2="69.99999999999999" y2="62.679491924311236" stroke="black" />
<line x1="75" y1="71.33974596215562" x2="85" y2="71.3397459621556" stroke="black" />
<line x1="85" y1="71.3397459621556" x2="89.99999999999999" y2="62.67949192431122" stroke="black" />
<line x1="85" y1="71.3397459621556" x2="90" y2="80" stroke="black" /><line x1="90" y1="80" x2="100" y2="80" stroke="black" />
<line x1="100" y1="80" x2="97.32050807568878" y2="90" stroke="black" />
<line x1="97.32050807568878" y1="90" x2="105.98076211353316" y2="95" stroke="black" />
<line x1="97.32050807568878" y1="90" x2="90" y2="97.32050807568876" stroke="black" />
<line x1="90" y1="97.32050807568876" x2="95" y2="105.98076211353316" stroke="black" />
<line x1="90" y1="97.32050807568876" x2="80" y2="100" stroke="black" />
<line x1="80" y1="100" x2="80" y2="110" stroke="black" /><line x1="80" y1="100" x2="70" y2="97.32050807568878" stroke="black" />
<line x1="70" y1="97.32050807568878" x2="65" y2="105.98076211353316" stroke="black" />
<line x1="70" y1="97.32050807568878" x2="62.67949192431123" y2="90" stroke="black" />
<line x1="62.67949192431123" y1="90" x2="54.01923788646685" y2="95.00000000000001" stroke="black" />
<line x1="62.67949192431123" y1="90" x2="60" y2="80" stroke="black" /><line x1="60" y1="80" x2="50" y2="80" stroke="black" />
<line x1="60" y1="80" x2="62.67949192431122" y2="70" stroke="black" /><line x1="62.67949192431122" y1="70" x2="54.01923788646684" y2="65.00000000000001" stroke="black" />
<line x1="62.67949192431122" y1="70" x2="69.99999999999999" y2="62.679491924311236" stroke="black" />
<line x1="69.99999999999999" y1="62.679491924311236" x2="64.99999999999999" y2="54.01923788646685" stroke="black" />
<line x1="69.99999999999999" y1="62.679491924311236" x2="80" y2="60" stroke="black" />
<line x1="80" y1="60" x2="80" y2="50" stroke="black" /><line x1="80" y1="60" x2="89.99999999999999" y2="62.67949192431122" stroke="black" />
<line x1="89.99999999999999" y1="62.67949192431122" x2="94.99999999999999" y2="54.019237886466826" stroke="black" />
<line x1="89.99999999999999" y1="62.67949192431122" x2="97.32050807568876" y2="69.99999999999999" stroke="black" />
<line x1="97.32050807568876" y1="69.99999999999999" x2="105.98076211353316" y2="64.99999999999999" stroke="black" />
<line x1="97.32050807568876" y1="69.99999999999999" x2="100" y2="80" stroke="black" />
<line x1="100" y1="80" x2="110" y2="79.99999999999999" stroke="black" />
<line x1="110" y1="80" x2="108.97777478867205" y2="87.76457135307562" stroke="black" />
<line x1="108.97777478867205" y1="87.76457135307562" x2="118.63703305156272" y2="90.35276180410082" stroke="black" />
<line x1="108.97777478867205" y1="87.76457135307562" x2="105.98076211353316" y2="95" stroke="black" />
<line x1="105.98076211353316" y1="95" x2="114.64101615137756" y2="100" stroke="black" />
<line x1="105.98076211353316" y1="95" x2="101.21320343559643" y2="101.21320343559643" stroke="black" />
<line x1="101.21320343559643" y1="101.21320343559643" x2="108.2842712474619" y2="108.2842712474619" stroke="black" />
<line x1="101.21320343559643" y1="101.21320343559643" x2="95" y2="105.98076211353316" stroke="black" />
<line x1="95" y1="105.98076211353316" x2="100" y2="114.64101615137754" stroke="black" />
<line x1="95" y1="105.98076211353316" x2="87.76457135307562" y2="108.97777478867205" stroke="black" />
<line x1="87.76457135307562" y1="108.97777478867205" x2="90.35276180410084" y2="118.63703305156272" stroke="black" />
<line x1="87.76457135307562" y1="108.97777478867205" x2="80" y2="110" stroke="black" />
<line x1="80" y1="110" x2="80" y2="120" stroke="black" /><line x1="80" y1="110" x2="72.23542864692438" y2="108.97777478867205" stroke="black" />
<line x1="72.23542864692438" y1="108.97777478867205" x2="69.64723819589918" y2="118.63703305156272" stroke="black" />
<line x1="72.23542864692438" y1="108.97777478867205" x2="65" y2="105.98076211353316" stroke="black" />
<line x1="65" y1="105.98076211353316" x2="60.00000000000001" y2="114.64101615137756" stroke="black" />
<line x1="65" y1="105.98076211353316" x2="58.78679656440357" y2="101.21320343559643" stroke="black" />
<line x1="58.78679656440357" y1="101.21320343559643" x2="51.7157287525381" y2="108.2842712474619" stroke="black" />
<line x1="58.78679656440357" y1="101.21320343559643" x2="54.01923788646685" y2="95.00000000000001" stroke="black" />
<line x1="54.01923788646685" y1="95.00000000000001" x2="45.35898384862246" y2="100.00000000000001" stroke="black" />
<line x1="54.01923788646685" y1="95.00000000000001" x2="51.02222521132795" y2="87.76457135307562" stroke="black" />
<line x1="51.02222521132795" y1="87.76457135307562" x2="41.362966948437276" y2="90.35276180410084" stroke="black" />
<line x1="51.02222521132795" y1="87.76457135307562" x2="50" y2="80" stroke="black" />
<line x1="50" y1="80" x2="40" y2="80" stroke="black" /><line x1="50" y1="80" x2="51.02222521132795" y2="72.23542864692439" stroke="black" />
<line x1="51.02222521132795" y1="72.23542864692439" x2="41.36296694843726" y2="69.64723819589919" stroke="black" />
<line x1="51.02222521132795" y1="72.23542864692439" x2="54.01923788646684" y2="65.00000000000001" stroke="black" />
<line x1="54.01923788646684" y1="65.00000000000001" x2="45.358983848622444" y2="60.000000000000014" stroke="black" />
<line x1="54.01923788646684" y1="65.00000000000001" x2="58.78679656440356" y2="58.78679656440359" stroke="black" />
<line x1="58.78679656440356" y1="58.78679656440359" x2="51.715728752538084" y2="51.71572875253811" stroke="black" />
<line x1="58.78679656440356" y1="58.78679656440359" x2="64.99999999999999" y2="54.01923788646685" stroke="black" />
<line x1="64.99999999999999" y1="54.01923788646685" x2="59.999999999999986" y2="45.358983848622465" stroke="black" />
<line x1="64.99999999999999" y1="54.01923788646685" x2="72.23542864692436" y2="51.02222521132796" stroke="black" />
<line x1="72.23542864692436" y1="51.02222521132796" x2="69.64723819589913" y2="41.362966948437276" stroke="black" />
<line x1="72.23542864692436" y1="51.02222521132796" x2="80" y2="50" stroke="black" />
<line x1="80" y1="50" x2="79.99999999999999" y2="40" stroke="black" /><line x1="80" y1="50" x2="87.76457135307561" y2="51.02222521132795" stroke="black" />
<line x1="87.76457135307561" y1="51.02222521132795" x2="90.35276180410081" y2="41.36296694843726" stroke="black" />
<line x1="87.76457135307561" y1="51.02222521132795" x2="94.99999999999999" y2="54.019237886466826" stroke="black" />
<line x1="94.99999999999999" y1="54.019237886466826" x2="99.99999999999997" y2="45.35898384862244" stroke="black" />
<line x1="94.99999999999999" y1="54.019237886466826" x2="101.21320343559643" y2="58.78679656440357" stroke="black" />
<line x1="101.21320343559643" y1="58.78679656440357" x2="108.2842712474619" y2="51.71572875253809" stroke="black" />
<line x1="101.21320343559643" y1="58.78679656440357" x2="105.98076211353316" y2="64.99999999999999" stroke="black" />
<line x1="105.98076211353316" y1="64.99999999999999" x2="114.64101615137753" y2="59.999999999999986" stroke="black" />
<line x1="105.98076211353316" y1="64.99999999999999" x2="108.97777478867204" y2="72.23542864692435" stroke="black" />
<line x1="108.97777478867204" y1="72.23542864692435" x2="118.63703305156272" y2="69.64723819589913" stroke="black" />
<line x1="108.97777478867204" y1="72.23542864692435" x2="110" y2="79.99999999999999" stroke="black" />
<line x1="110" y1="79.99999999999999" x2="120" y2="79.99999999999999" stroke="black" />
<line x1="120" y1="80" x2="118.63703305156272" y2="90.35276180410082" stroke="black" />
<line x1="118.63703305156272" y1="90.35276180410082" x2="128.2962913144534" y2="92.94095225512604" stroke="black" />
<line x1="118.63703305156272" y1="90.35276180410082" x2="114.64101615137756" y2="100" stroke="black" />
<line x1="114.64101615137756" y1="100" x2="123.30127018922194" y2="105" stroke="black" />
<line x1="114.64101615137756" y1="100" x2="108.2842712474619" y2="108.2842712474619" stroke="black" />
<line x1="108.2842712474619" y1="108.2842712474619" x2="115.35533905932738" y2="115.35533905932738" stroke="black" />
<line x1="108.2842712474619" y1="108.2842712474619" x2="100" y2="114.64101615137754" stroke="black" />
<line x1="100" y1="114.64101615137754" x2="105" y2="123.30127018922192" stroke="black" />
<line x1="100" y1="114.64101615137754" x2="90.35276180410084" y2="118.63703305156272" stroke="black" />
<line x1="90.35276180410084" y1="118.63703305156272" x2="92.94095225512605" y2="128.2962913144534" stroke="black" />
<line x1="90.35276180410084" y1="118.63703305156272" x2="80" y2="120" stroke="black" />
<line x1="80" y1="120" x2="80" y2="130" stroke="black" /><line x1="80" y1="120" x2="69.64723819589918" y2="118.63703305156272" stroke="black" />
<line x1="69.64723819589918" y1="118.63703305156272" x2="67.05904774487396" y2="128.2962913144534" stroke="black" />
<line x1="69.64723819589918" y1="118.63703305156272" x2="60.00000000000001" y2="114.64101615137756" stroke="black" />
<line x1="60.00000000000001" y1="114.64101615137756" x2="55.000000000000014" y2="123.30127018922194" stroke="black" />
<line x1="60.00000000000001" y1="114.64101615137756" x2="51.7157287525381" y2="108.2842712474619" stroke="black" />
<line x1="51.7157287525381" y1="108.2842712474619" x2="44.64466094067263" y2="115.35533905932738" stroke="black" />
<line x1="51.7157287525381" y1="108.2842712474619" x2="45.35898384862246" y2="100.00000000000001" stroke="black" />
<line x1="45.35898384862246" y1="100.00000000000001" x2="36.698729810778076" y2="105.00000000000001" stroke="black" />
<line x1="45.35898384862246" y1="100.00000000000001" x2="41.362966948437276" y2="90.35276180410084" stroke="black" />
<line x1="41.362966948437276" y1="90.35276180410084" x2="31.703708685546587" y2="92.94095225512605" stroke="black" />
<line x1="41.362966948437276" y1="90.35276180410084" x2="40" y2="80" stroke="black" />
<line x1="40" y1="80" x2="30" y2="80" stroke="black" /><line x1="40" y1="80" x2="41.36296694843726" y2="69.64723819589919" stroke="black" />
<line x1="41.36296694843726" y1="69.64723819589919" x2="31.70370868554658" y2="67.05904774487398" stroke="black" />
<line x1="41.36296694843726" y1="69.64723819589919" x2="45.358983848622444" y2="60.000000000000014" stroke="black" />
<line x1="45.358983848622444" y1="60.000000000000014" x2="36.69872981077806" y2="55.000000000000014" stroke="black" />
<line x1="45.358983848622444" y1="60.000000000000014" x2="51.715728752538084" y2="51.71572875253811" stroke="black" />
<line x1="51.715728752538084" y1="51.71572875253811" x2="44.64466094067261" y2="44.644660940672644" stroke="black" />
<line x1="51.715728752538084" y1="51.71572875253811" x2="59.999999999999986" y2="45.358983848622465" stroke="black" />
<line x1="59.999999999999986" y1="45.358983848622465" x2="54.99999999999998" y2="36.69872981077808" stroke="black" />
<line x1="59.999999999999986" y1="45.358983848622465" x2="69.64723819589913" y2="41.362966948437276" stroke="black" />
<line x1="69.64723819589913" y1="41.362966948437276" x2="67.05904774487392" y2="31.703708685546594" stroke="black" />
<line x1="69.64723819589913" y1="41.362966948437276" x2="79.99999999999999" y2="40" stroke="black" />
<line x1="79.99999999999999" y1="40" x2="79.99999999999999" y2="30" stroke="black" />
<line x1="79.99999999999999" y1="40" x2="90.35276180410081" y2="41.36296694843726" stroke="black" />
<line x1="90.35276180410081" y1="41.36296694843726" x2="92.940952255126" y2="31.70370868554658" stroke="black" />
<line x1="90.35276180410081" y1="41.36296694843726" x2="99.99999999999997" y2="45.35898384862244" stroke="black" />
<line x1="99.99999999999997" y1="45.35898384862244" x2="104.99999999999997" y2="36.69872981077805" stroke="black" />
<line x1="99.99999999999997" y1="45.35898384862244" x2="108.2842712474619" y2="51.71572875253809" stroke="black" />
<line x1="108.2842712474619" y1="51.71572875253809" x2="115.35533905932738" y2="44.644660940672615" stroke="black" />
<line x1="108.2842712474619" y1="51.71572875253809" x2="114.64101615137753" y2="59.999999999999986" stroke="black" />
<line x1="114.64101615137753" y1="59.999999999999986" x2="123.30127018922192" y2="54.99999999999998" stroke="black" />
<line x1="114.64101615137753" y1="59.999999999999986" x2="118.63703305156272" y2="69.64723819589913" stroke="black" />
<line x1="118.63703305156272" y1="69.64723819589913" x2="128.2962913144534" y2="67.05904774487392" stroke="black" />
<line x1="118.63703305156272" y1="69.64723819589913" x2="120" y2="79.99999999999999" stroke="black" />
<line x1="120" y1="79.99999999999999" x2="130" y2="79.99999999999999" stroke="black" />
<line x1="130" y1="80" x2="128.2962913144534" y2="92.94095225512604" stroke="black" />
<line x1="128.2962913144534" y1="92.94095225512604" x2="137.9555495773441" y2="95.52914270615125" stroke="black" />
<line x1="128.2962913144534" y1="92.94095225512604" x2="123.30127018922194" y2="105" stroke="black" />
<line x1="123.30127018922194" y1="105" x2="131.96152422706632" y2="110" stroke="black" />
<line x1="123.30127018922194" y1="105" x2="115.35533905932738" y2="115.35533905932738" stroke="black" />
<line x1="115.35533905932738" y1="115.35533905932738" x2="122.42640687119285" y2="122.42640687119285" stroke="black" />
<line x1="115.35533905932738" y1="115.35533905932738" x2="105" y2="123.30127018922192" stroke="black" />
<line x1="105" y1="123.30127018922192" x2="110" y2="131.96152422706632" stroke="black" />
<line x1="105" y1="123.30127018922192" x2="92.94095225512605" y2="128.2962913144534" stroke="black" />
<line x1="92.94095225512605" y1="128.2962913144534" x2="95.52914270615126" y2="137.9555495773441" stroke="black" />
<line x1="92.94095225512605" y1="128.2962913144534" x2="80" y2="130" stroke="black" />
<line x1="80" y1="130" x2="80" y2="140" stroke="black" /><line x1="80" y1="130" x2="67.05904774487396" y2="128.2962913144534" stroke="black" />
<line x1="67.05904774487396" y1="128.2962913144534" x2="64.47085729384877" y2="137.9555495773441" stroke="black" />
<line x1="67.05904774487396" y1="128.2962913144534" x2="55.000000000000014" y2="123.30127018922194" stroke="black" />
<line x1="55.000000000000014" y1="123.30127018922194" x2="50.000000000000014" y2="131.96152422706632" stroke="black" />
<line x1="55.000000000000014" y1="123.30127018922194" x2="44.64466094067263" y2="115.35533905932738" stroke="black" />
<line x1="44.64466094067263" y1="115.35533905932738" x2="37.573593128807154" y2="122.42640687119285" stroke="black" />
<line x1="44.64466094067263" y1="115.35533905932738" x2="36.698729810778076" y2="105.00000000000001" stroke="black" />
<line x1="36.698729810778076" y1="105.00000000000001" x2="28.038475772933694" y2="110.00000000000003" stroke="black" />
<line x1="36.698729810778076" y1="105.00000000000001" x2="31.703708685546587" y2="92.94095225512605" stroke="black" />
<line x1="31.703708685546587" y1="92.94095225512605" x2="22.044450422655906" y2="95.52914270615126" stroke="black" />
<line x1="31.703708685546587" y1="92.94095225512605" x2="30" y2="80" stroke="black" />
<line x1="30" y1="80" x2="20" y2="80.00000000000001" stroke="black" /><line x1="30" y1="80" x2="31.70370868554658" y2="67.05904774487398" stroke="black" />
<line x1="31.70370868554658" y1="67.05904774487398" x2="22.044450422655892" y2="64.47085729384878" stroke="black" />
<line x1="31.70370868554658" y1="67.05904774487398" x2="36.69872981077806" y2="55.000000000000014" stroke="black" />
<line x1="36.69872981077806" y1="55.000000000000014" x2="28.038475772933673" y2="50.000000000000014" stroke="black" />
<line x1="36.69872981077806" y1="55.000000000000014" x2="44.64466094067261" y2="44.644660940672644" stroke="black" />
<line x1="44.64466094067261" y1="44.644660940672644" x2="37.573593128807126" y2="37.573593128807175" stroke="black" />
<line x1="44.64466094067261" y1="44.644660940672644" x2="54.99999999999998" y2="36.69872981077808" stroke="black" />
<line x1="54.99999999999998" y1="36.69872981077808" x2="49.99999999999997" y2="28.038475772933694" stroke="black" />
<line x1="54.99999999999998" y1="36.69872981077808" x2="67.05904774487392" y2="31.703708685546594" stroke="black" />
<line x1="67.05904774487392" y1="31.703708685546594" x2="64.47085729384871" y2="22.044450422655913" stroke="black" />
<line x1="67.05904774487392" y1="31.703708685546594" x2="79.99999999999999" y2="30" stroke="black" />
<line x1="79.99999999999999" y1="30" x2="79.99999999999999" y2="20" stroke="black" />
<line x1="79.99999999999999" y1="30" x2="92.940952255126" y2="31.70370868554658" stroke="black" />
<line x1="92.940952255126" y1="31.70370868554658" x2="95.52914270615122" y2="22.044450422655892" stroke="black" />
<line x1="92.940952255126" y1="31.70370868554658" x2="104.99999999999997" y2="36.69872981077805" stroke="black" />
<line x1="104.99999999999997" y1="36.69872981077805" x2="109.99999999999996" y2="28.03847577293366" stroke="black" />
<line x1="104.99999999999997" y1="36.69872981077805" x2="115.35533905932738" y2="44.644660940672615" stroke="black" />
<line x1="115.35533905932738" y1="44.644660940672615" x2="122.42640687119284" y2="37.57359312880714" stroke="black" />
<line x1="115.35533905932738" y1="44.644660940672615" x2="123.30127018922192" y2="54.99999999999998" stroke="black" />
<line x1="123.30127018922192" y1="54.99999999999998" x2="131.96152422706632" y2="49.99999999999997" stroke="black" />
<line x1="123.30127018922192" y1="54.99999999999998" x2="128.2962913144534" y2="67.05904774487392" stroke="black" />
<line x1="128.2962913144534" y1="67.05904774487392" x2="137.95554957734407" y2="64.47085729384871" stroke="black" />
<line x1="128.2962913144534" y1="67.05904774487392" x2="130" y2="79.99999999999999" stroke="black" />
<line x1="130" y1="79.99999999999999" x2="140" y2="79.99999999999999" stroke="black" />
<line x1="140" y1="80" x2="139.4866916824286" y2="87.83157153320309" stroke="black" />
<line x1="139.4866916824286" y1="87.83157153320309" x2="149.40114029616672" y2="89.1368334554036" stroke="black" />
<line x1="139.4866916824286" y1="87.83157153320309" x2="137.9555495773441" y2="95.52914270615125" stroke="black" />
<line x1="137.9555495773441" y1="95.52914270615125" x2="147.6148078402348" y2="98.11733315717646" stroke="black" />
<line x1="137.9555495773441" y1="95.52914270615125" x2="135.4327719506772" y2="102.96100594190538" stroke="black" />
<line x1="135.4327719506772" y1="102.96100594190538" x2="144.67156727579007" y2="106.78784026555628" stroke="black" />
<line x1="135.4327719506772" y1="102.96100594190538" x2="131.96152422706632" y2="110" stroke="black" />
<line x1="131.96152422706632" y1="110" x2="140.62177826491072" y2="115" stroke="black" />
<line x1="131.96152422706632" y1="110" x2="127.60120041747412" y2="116.52568574052323" stroke="black" />
<line x1="127.60120041747412" y1="116.52568574052323" x2="135.53473382038646" y2="122.61330003061045" stroke="black" />
<line x1="127.60120041747412" y1="116.52568574052323" x2="122.42640687119285" y2="122.42640687119285" stroke="black" />
<line x1="122.42640687119285" y1="122.42640687119285" x2="129.49747468305833" y2="129.49747468305833" stroke="black" />
<line x1="122.42640687119285" y1="122.42640687119285" x2="116.52568574052324" y2="127.6012004174741" stroke="black" />
<line x1="116.52568574052324" y1="127.6012004174741" x2="122.61330003061045" y2="135.53473382038646" stroke="black" />
<line x1="116.52568574052324" y1="127.6012004174741" x2="110" y2="131.96152422706632" stroke="black" />
<line x1="110" y1="131.96152422706632" x2="115" y2="140.6217782649107" stroke="black" />
<line x1="110" y1="131.96152422706632" x2="102.9610059419054" y2="135.4327719506772" stroke="black" />
<line x1="102.9610059419054" y1="135.4327719506772" x2="106.78784026555628" y2="144.67156727579007" stroke="black" />
<line x1="102.9610059419054" y1="135.4327719506772" x2="95.52914270615126" y2="137.9555495773441" stroke="black" />
<line x1="95.52914270615126" y1="137.9555495773441" x2="98.11733315717646" y2="147.6148078402348" stroke="black" />
<line x1="95.52914270615126" y1="137.9555495773441" x2="87.8315715332031" y2="139.4866916824286" stroke="black" />
<line x1="87.8315715332031" y1="139.4866916824286" x2="89.13683345540362" y2="149.40114029616672" stroke="black" />
<line x1="87.8315715332031" y1="139.4866916824286" x2="80" y2="140" stroke="black" />
<line x1="80" y1="140" x2="80" y2="150" stroke="black" /><line x1="80" y1="140" x2="72.16842846679691" y2="139.4866916824286" stroke="black" />
<line x1="72.16842846679691" y1="139.4866916824286" x2="70.8631665445964" y2="149.40114029616672" stroke="black" />
<line x1="72.16842846679691" y1="139.4866916824286" x2="64.47085729384877" y2="137.9555495773441" stroke="black" />
<line x1="64.47085729384877" y1="137.9555495773441" x2="61.882666842823554" y2="147.6148078402348" stroke="black" />
<line x1="64.47085729384877" y1="137.9555495773441" x2="57.03899405809463" y2="135.43277195067722" stroke="black" />
<line x1="57.03899405809463" y1="135.43277195067722" x2="53.21215973444373" y2="144.6715672757901" stroke="black" />
<line x1="57.03899405809463" y1="135.43277195067722" x2="50.000000000000014" y2="131.96152422706632" stroke="black" />
<line x1="50.000000000000014" y1="131.96152422706632" x2="45.000000000000014" y2="140.62177826491072" stroke="black" />
<line x1="50.000000000000014" y1="131.96152422706632" x2="43.47431425947678" y2="127.60120041747413" stroke="black" />
<line x1="43.47431425947678" y1="127.60120041747413" x2="37.386699969389575" y2="135.53473382038646" stroke="black" />
<line x1="43.47431425947678" y1="127.60120041747413" x2="37.573593128807154" y2="122.42640687119285" stroke="black" />
<line x1="37.573593128807154" y1="122.42640687119285" x2="30.50252531694168" y2="129.49747468305833" stroke="black" />
<line x1="37.573593128807154" y1="122.42640687119285" x2="32.398799582525896" y2="116.52568574052324" stroke="black" />
<line x1="32.398799582525896" y1="116.52568574052324" x2="24.465266179613543" y2="122.61330003061046" stroke="black" />
<line x1="32.398799582525896" y1="116.52568574052324" x2="28.038475772933694" y2="110.00000000000003" stroke="black" />
<line x1="28.038475772933694" y1="110.00000000000003" x2="19.378221735089305" y2="115.00000000000003" stroke="black" />
<line x1="28.038475772933694" y1="110.00000000000003" x2="24.567228049322793" y2="102.9610059419054" stroke="black" />
<line x1="24.567228049322793" y1="102.9610059419054" x2="15.328432724209932" y2="106.7878402655563" stroke="black" />
<line x1="24.567228049322793" y1="102.9610059419054" x2="22.044450422655906" y2="95.52914270615126" stroke="black" />
<line x1="22.044450422655906" y1="95.52914270615126" x2="12.385192159765225" y2="98.11733315717647" stroke="black" />
<line x1="22.044450422655906" y1="95.52914270615126" x2="20.51330831757138" y2="87.83157153320312" stroke="black" />
<line x1="20.51330831757138" y1="87.83157153320312" x2="10.59885970383327" y2="89.13683345540363" stroke="black" />
<line x1="20.51330831757138" y1="87.83157153320312" x2="20" y2="80.00000000000001" stroke="black" />
<line x1="20" y1="80.00000000000001" x2="10" y2="80.00000000000001" stroke="black" />
<line x1="20" y1="80.00000000000001" x2="20.513308317571372" y2="72.16842846679693" stroke="black" />
<line x1="20.513308317571372" y1="72.16842846679693" x2="10.59885970383327" y2="70.86316654459641" stroke="black" />
<line x1="20.513308317571372" y1="72.16842846679693" x2="22.044450422655892" y2="64.47085729384878" stroke="black" />
<line x1="22.044450422655892" y1="64.47085729384878" x2="12.38519215976521" y2="61.882666842823575" stroke="black" />
<line x1="22.044450422655892" y1="64.47085729384878" x2="24.56722804932278" y2="57.038994058094644" stroke="black" />
<line x1="24.56722804932278" y1="57.038994058094644" x2="15.328432724209918" y2="53.21215973444376" stroke="black" />
<line x1="24.56722804932278" y1="57.038994058094644" x2="28.038475772933673" y2="50.000000000000014" stroke="black" />
<line x1="28.038475772933673" y1="50.000000000000014" x2="19.378221735089284" y2="45.00000000000002" stroke="black" />
<line x1="28.038475772933673" y1="50.000000000000014" x2="32.398799582525875" y2="43.47431425947678" stroke="black" />
<line x1="32.398799582525875" y1="43.47431425947678" x2="24.465266179613522" y2="37.386699969389575" stroke="black" />
<line x1="32.398799582525875" y1="43.47431425947678" x2="37.573593128807126" y2="37.573593128807175" stroke="black" />
<line x1="37.573593128807126" y1="37.573593128807175" x2="30.502525316941643" y2="30.5025253169417" stroke="black" />
<line x1="37.573593128807126" y1="37.573593128807175" x2="43.47431425947675" y2="32.3987995825259" stroke="black" />
<line x1="43.47431425947675" y1="32.3987995825259" x2="37.38669996938954" y2="24.46526617961355" stroke="black" />
<line x1="43.47431425947675" y1="32.3987995825259" x2="49.99999999999997" y2="28.038475772933694" stroke="black" />
<line x1="49.99999999999997" y1="28.038475772933694" x2="44.99999999999997" y2="19.378221735089312" stroke="black" />
<line x1="49.99999999999997" y1="28.038475772933694" x2="57.03899405809458" y2="24.567228049322807" stroke="black" />
<line x1="57.03899405809458" y1="24.567228049322807" x2="53.212159734443674" y2="15.328432724209947" stroke="black" />
<line x1="57.03899405809458" y1="24.567228049322807" x2="64.47085729384871" y2="22.044450422655913" stroke="black" />
<line x1="64.47085729384871" y1="22.044450422655913" x2="61.8826668428235" y2="12.38519215976524" stroke="black" />
<line x1="64.47085729384871" y1="22.044450422655913" x2="72.16842846679685" y2="20.513308317571386" stroke="black" />
<line x1="72.16842846679685" y1="20.513308317571386" x2="70.86316654459633" y2="10.598859703833284" stroke="black" />
<line x1="72.16842846679685" y1="20.513308317571386" x2="79.99999999999999" y2="20" stroke="black" />
<line x1="79.99999999999999" y1="20" x2="79.99999999999999" y2="10" stroke="black" />
<line x1="79.99999999999999" y1="20" x2="87.83157153320307" y2="20.513308317571372" stroke="black" />
<line x1="87.83157153320307" y1="20.513308317571372" x2="89.13683345540359" y2="10.59885970383327" stroke="black" />
<line x1="87.83157153320307" y1="20.513308317571372" x2="95.52914270615122" y2="22.044450422655892" stroke="black" />
<line x1="95.52914270615122" y1="22.044450422655892" x2="98.11733315717642" y2="12.38519215976521" stroke="black" />
<line x1="95.52914270615122" y1="22.044450422655892" x2="102.96100594190534" y2="24.56722804932278" stroke="black" />
<line x1="102.96100594190534" y1="24.56722804932278" x2="106.78784026555624" y2="15.328432724209918" stroke="black" />
<line x1="102.96100594190534" y1="24.56722804932278" x2="109.99999999999996" y2="28.03847577293366" stroke="black" />
<line x1="109.99999999999996" y1="28.03847577293366" x2="114.99999999999994" y2="19.37822173508927" stroke="black" />
<line x1="109.99999999999996" y1="28.03847577293366" x2="116.52568574052319" y2="32.398799582525854" stroke="black" />
<line x1="116.52568574052319" y1="32.398799582525854" x2="122.61330003061039" y2="24.4652661796135" stroke="black" />
<line x1="116.52568574052319" y1="32.398799582525854" x2="122.42640687119284" y2="37.57359312880714" stroke="black" />
<line x1="122.42640687119284" y1="37.57359312880714" x2="129.49747468305833" y2="30.502525316941664" stroke="black" />
<line x1="122.42640687119284" y1="37.57359312880714" x2="127.6012004174741" y2="43.47431425947675" stroke="black" />
<line x1="127.6012004174741" y1="43.47431425947675" x2="135.53473382038646" y2="37.38669996938954" stroke="black" />
<line x1="127.6012004174741" y1="43.47431425947675" x2="131.96152422706632" y2="49.99999999999997" stroke="black" />
<line x1="131.96152422706632" y1="49.99999999999997" x2="140.6217782649107" y2="44.99999999999997" stroke="black" />
<line x1="131.96152422706632" y1="49.99999999999997" x2="135.4327719506772" y2="57.03899405809457" stroke="black" />
<line x1="135.4327719506772" y1="57.03899405809457" x2="144.67156727579004" y2="53.212159734443674" stroke="black" />
<line x1="135.4327719506772" y1="57.03899405809457" x2="137.95554957734407" y2="64.47085729384871" stroke="black" />
<line x1="137.95554957734407" y1="64.47085729384871" x2="147.61480784023476" y2="61.88266684282349" stroke="black" />
<line x1="137.95554957734407" y1="64.47085729384871" x2="139.4866916824286" y2="72.16842846679684" stroke="black" />
<line x1="139.4866916824286" y1="72.16842846679684" x2="149.40114029616672" y2="70.86316654459633" stroke="black" />
<line x1="139.4866916824286" y1="72.16842846679684" x2="140" y2="79.99999999999999" stroke="black" />
<line x1="140" y1="79.99999999999999" x2="150" y2="79.99999999999999" stroke="black" />
<line x1="150" y1="80" x2="149.40114029616672" y2="89.1368334554036" stroke="black" />
<line x1="149.40114029616672" y1="89.1368334554036" x2="159.31558890990482" y2="90.44209537760412" stroke="black" />
<line x1="149.40114029616672" y1="89.1368334554036" x2="147.6148078402348" y2="98.11733315717646" stroke="black" />
<line x1="147.6148078402348" y1="98.11733315717646" x2="157.27406610312545" y2="100.70552360820166" stroke="black" />
<line x1="147.6148078402348" y1="98.11733315717646" x2="144.67156727579007" y2="106.78784026555628" stroke="black" />
<line x1="144.67156727579007" y1="106.78784026555628" x2="153.91036260090294" y2="110.61467458920718" stroke="black" />
<line x1="144.67156727579007" y1="106.78784026555628" x2="140.62177826491072" y2="115" stroke="black" />
<line x1="140.62177826491072" y1="115" x2="149.2820323027551" y2="120" stroke="black" />
<line x1="140.62177826491072" y1="115" x2="135.53473382038646" y2="122.61330003061045" stroke="black" />
<line x1="135.53473382038646" y1="122.61330003061045" x2="143.46826722329882" y2="128.70091432069765" stroke="black" />
<line x1="135.53473382038646" y1="122.61330003061045" x2="129.49747468305833" y2="129.49747468305833" stroke="black" />
<line x1="129.49747468305833" y1="129.49747468305833" x2="136.5685424949238" y2="136.5685424949238" stroke="black" />
<line x1="129.49747468305833" y1="129.49747468305833" x2="122.61330003061045" y2="135.53473382038646" stroke="black" />
<line x1="122.61330003061045" y1="135.53473382038646" x2="128.70091432069765" y2="143.46826722329882" stroke="black" />
<line x1="122.61330003061045" y1="135.53473382038646" x2="115" y2="140.6217782649107" stroke="black" />
<line x1="115" y1="140.6217782649107" x2="120" y2="149.28203230275508" stroke="black" />
<line x1="115" y1="140.6217782649107" x2="106.78784026555628" y2="144.67156727579007" stroke="black" />
<line x1="106.78784026555628" y1="144.67156727579007" x2="110.61467458920718" y2="153.91036260090294" stroke="black" />
<line x1="106.78784026555628" y1="144.67156727579007" x2="98.11733315717646" y2="147.6148078402348" stroke="black" />
<line x1="98.11733315717646" y1="147.6148078402348" x2="100.70552360820167" y2="157.27406610312545" stroke="black" />
<line x1="98.11733315717646" y1="147.6148078402348" x2="89.13683345540362" y2="149.40114029616672" stroke="black" />
<line x1="89.13683345540362" y1="149.40114029616672" x2="90.44209537760413" y2="159.31558890990482" stroke="black" />
<line x1="89.13683345540362" y1="149.40114029616672" x2="80" y2="150" stroke="black" />
<line x1="80" y1="150" x2="80" y2="160" stroke="black" /><line x1="80" y1="150" x2="70.8631665445964" y2="149.40114029616672" stroke="black" />
<line x1="70.8631665445964" y1="149.40114029616672" x2="69.5579046223959" y2="159.31558890990485" stroke="black" />
<line x1="70.8631665445964" y1="149.40114029616672" x2="61.882666842823554" y2="147.6148078402348" stroke="black" />
<line x1="61.882666842823554" y1="147.6148078402348" x2="59.29447639179835" y2="157.27406610312545" stroke="black" />
<line x1="61.882666842823554" y1="147.6148078402348" x2="53.21215973444373" y2="144.6715672757901" stroke="black" />
<line x1="53.21215973444373" y1="144.6715672757901" x2="49.38532541079284" y2="153.91036260090294" stroke="black" />
<line x1="53.21215973444373" y1="144.6715672757901" x2="45.000000000000014" y2="140.62177826491072" stroke="black" />
<line x1="45.000000000000014" y1="140.62177826491072" x2="40.000000000000014" y2="149.2820323027551" stroke="black" />
<line x1="45.000000000000014" y1="140.62177826491072" x2="37.386699969389575" y2="135.53473382038646" stroke="black" />
<line x1="37.386699969389575" y1="135.53473382038646" x2="31.299085679302372" y2="143.46826722329882" stroke="black" />
<line x1="37.386699969389575" y1="135.53473382038646" x2="30.50252531694168" y2="129.49747468305833" stroke="black" />
<line x1="30.50252531694168" y1="129.49747468305833" x2="23.431457505076203" y2="136.5685424949238" stroke="black" />
<line x1="30.50252531694168" y1="129.49747468305833" x2="24.465266179613543" y2="122.61330003061046" stroke="black" />
<line x1="24.465266179613543" y1="122.61330003061046" x2="16.531732776701197" y2="128.70091432069768" stroke="black" />
<line x1="24.465266179613543" y1="122.61330003061046" x2="19.378221735089305" y2="115.00000000000003" stroke="black" />
<line x1="19.378221735089305" y1="115.00000000000003" x2="10.717967697244916" y2="120.00000000000003" stroke="black" />
<line x1="19.378221735089305" y1="115.00000000000003" x2="15.328432724209932" y2="106.7878402655563" stroke="black" />
<line x1="15.328432724209932" y1="106.7878402655563" x2="6.089637399097057" y2="110.6146745892072" stroke="black" />
<line x1="15.328432724209932" y1="106.7878402655563" x2="12.385192159765225" y2="98.11733315717647" stroke="black" />
<line x1="12.385192159765225" y1="98.11733315717647" x2="2.725933896874551" y2="100.70552360820167" stroke="black" />
<line x1="12.385192159765225" y1="98.11733315717647" x2="10.59885970383327" y2="89.13683345540363" stroke="black" />
<line x1="10.59885970383327" y1="89.13683345540363" x2="0.6844110900951677" y2="90.44209537760416" stroke="black" />
<line x1="10.59885970383327" y1="89.13683345540363" x2="10" y2="80.00000000000001" stroke="black" />
<line x1="10" y1="80.00000000000001" x2="0" y2="80.00000000000001" stroke="black" />
<line x1="10" y1="80.00000000000001" x2="10.59885970383327" y2="70.86316654459641" stroke="black" />
<line x1="10.59885970383327" y1="70.86316654459641" x2="0.6844110900951534" y2="69.5579046223959" stroke="black" />
<line x1="10.59885970383327" y1="70.86316654459641" x2="12.38519215976521" y2="61.882666842823575" stroke="black" />
<line x1="12.38519215976521" y1="61.882666842823575" x2="2.7259338968745226" y2="59.29447639179837" stroke="black" />
<line x1="12.38519215976521" y1="61.882666842823575" x2="15.328432724209918" y2="53.21215973444376" stroke="black" />
<line x1="15.328432724209918" y1="53.21215973444376" x2="6.089637399097043" y2="49.38532541079286" stroke="black" />
<line x1="15.328432724209918" y1="53.21215973444376" x2="19.378221735089284" y2="45.00000000000002" stroke="black" />
<line x1="19.378221735089284" y1="45.00000000000002" x2="10.717967697244887" y2="40.00000000000002" stroke="black" />
<line x1="19.378221735089284" y1="45.00000000000002" x2="24.465266179613522" y2="37.386699969389575" stroke="black" />
<line x1="24.465266179613522" y1="37.386699969389575" x2="16.53173277670117" y2="31.299085679302372" stroke="black" />
<line x1="24.465266179613522" y1="37.386699969389575" x2="30.502525316941643" y2="30.5025253169417" stroke="black" />
<line x1="30.502525316941643" y1="30.5025253169417" x2="23.431457505076168" y2="23.43145750507623" stroke="black" />
<line x1="30.502525316941643" y1="30.5025253169417" x2="37.38669996938954" y2="24.46526617961355" stroke="black" />
<line x1="37.38669996938954" y1="24.46526617961355" x2="31.29908567930233" y2="16.531732776701205" stroke="black" />
<line x1="37.38669996938954" y1="24.46526617961355" x2="44.99999999999997" y2="19.378221735089312" stroke="black" />
<line x1="44.99999999999997" y1="19.378221735089312" x2="39.999999999999964" y2="10.71796769724493" stroke="black" />
<line x1="44.99999999999997" y1="19.378221735089312" x2="53.212159734443674" y2="15.328432724209947" stroke="black" />
<line x1="53.212159734443674" y1="15.328432724209947" x2="49.385325410792774" y2="6.089637399097086" stroke="black" />
<line x1="53.212159734443674" y1="15.328432724209947" x2="61.8826668428235" y2="12.38519215976524" stroke="black" />
<line x1="61.8826668428235" y1="12.38519215976524" x2="59.29447639179828" y2="2.725933896874551" stroke="black" />
<line x1="61.8826668428235" y1="12.38519215976524" x2="70.86316654459633" y2="10.598859703833284" stroke="black" />
<line x1="70.86316654459633" y1="10.598859703833284" x2="69.5579046223958" y2="0.6844110900951819" stroke="black" />
<line x1="70.86316654459633" y1="10.598859703833284" x2="79.99999999999999" y2="10" stroke="black" />
<line x1="79.99999999999999" y1="10" x2="79.99999999999999" y2="0" stroke="black" />
<line x1="79.99999999999999" y1="10" x2="89.13683345540359" y2="10.59885970383327" stroke="black" />
<line x1="89.13683345540359" y1="10.59885970383327" x2="90.4420953776041" y2="0.6844110900951534" stroke="black" />
<line x1="89.13683345540359" y1="10.59885970383327" x2="98.11733315717642" y2="12.38519215976521" stroke="black" />
<line x1="98.11733315717642" y1="12.38519215976521" x2="100.70552360820162" y2="2.7259338968745226" stroke="black" />
<line x1="98.11733315717642" y1="12.38519215976521" x2="106.78784026555624" y2="15.328432724209918" stroke="black" />
<line x1="106.78784026555624" y1="15.328432724209918" x2="110.61467458920714" y2="6.089637399097043" stroke="black" />
<line x1="106.78784026555624" y1="15.328432724209918" x2="114.99999999999994" y2="19.37822173508927" stroke="black" />
<line x1="114.99999999999994" y1="19.37822173508927" x2="119.99999999999994" y2="10.717967697244873" stroke="black" />
<line x1="114.99999999999994" y1="19.37822173508927" x2="122.61330003061039" y2="24.4652661796135" stroke="black" />
<line x1="122.61330003061039" y1="24.4652661796135" x2="128.7009143206976" y2="16.53173277670114" stroke="black" />
<line x1="122.61330003061039" y1="24.4652661796135" x2="129.49747468305833" y2="30.502525316941664" stroke="black" />
<line x1="129.49747468305833" y1="30.502525316941664" x2="136.5685424949238" y2="23.43145750507618" stroke="black" />
<line x1="129.49747468305833" y1="30.502525316941664" x2="135.53473382038646" y2="37.38669996938954" stroke="black" />
<line x1="135.53473382038646" y1="37.38669996938954" x2="143.4682672232988" y2="31.29908567930233" stroke="black" />
<line x1="135.53473382038646" y1="37.38669996938954" x2="140.6217782649107" y2="44.99999999999997" stroke="black" />
<line x1="140.6217782649107" y1="44.99999999999997" x2="149.28203230275506" y2="39.999999999999964" stroke="black" />
<line x1="140.6217782649107" y1="44.99999999999997" x2="144.67156727579004" y2="53.212159734443674" stroke="black" />
<line x1="144.67156727579004" y1="53.212159734443674" x2="153.91036260090291" y2="49.38532541079277" stroke="black" />
<line x1="144.67156727579004" y1="53.212159734443674" x2="147.61480784023476" y2="61.88266684282349" stroke="black" />
<line x1="147.61480784023476" y1="61.88266684282349" x2="157.27406610312545" y2="59.29447639179827" stroke="black" />
<line x1="147.61480784023476" y1="61.88266684282349" x2="149.40114029616672" y2="70.86316654459633" stroke="black" />
<line x1="149.40114029616672" y1="70.86316654459633" x2="159.31558890990482" y2="69.5579046223958" stroke="black" />
<line x1="149.40114029616672" y1="70.86316654459633" x2="150" y2="79.99999999999999" stroke="black" />
<line x1="150" y1="79.99999999999999" x2="160" y2="79.99999999999999" stroke="black" />
<circle cx="80" cy="80" r="80" fill-opacity="0" stroke="black" /></g>
</svg>
