<svg xmlns="http://www.w3.org/2000/svg" xmlns:svg="http://www.w3.org/2000/svg" xmlns:xlink="http://www.w3.org/1999/xlink" width="100" height="100"><g><rect x="0" y="0" width="10" height="10" fill="rgb(255, 255, 0)" /><rect x="10" y="0" width="10" height="10" fill="rgb(246.318182, 246.318182, 0)" />
<rect x="20" y="0" width="10" height="10" fill="rgb(237.636364, 237.636364, 0)" />
<rect x="30" y="0" width="10" height="10" fill="rgb(228.954545, 228.954545, 0)" />
<rect x="40" y="0" width="10" height="10" fill="rgb(220.272727, 220.272727, 0)" />
<rect x="40" y="10" width="10" height="10" fill="rgb(211.590909, 211.590909, 0)" />
<rect x="30" y="20" width="10" height="10" fill="rgb(194.227273, 194.227273, 0)" />
<rect x="40" y="20" width="10" height="10" fill="rgb(202.909091, 202.909091, 0)" />
<rect x="30" y="30" width="10" height="10" fill="rgb(185.545455, 185.545455, 0)" />
<rect x="40" y="30" width="10" height="10" fill="rgb(176.863636, 176.863636, 0)" />
<rect x="40" y="40" width="10" height="10" fill="rgb(168.181818, 168.181818, 0)" />
<rect x="40" y="50" width="10" height="10" fill="rgb(159.5, 159.5, 0)" />
<rect x="50" y="50" width="10" height="10" fill="rgb(64, 64, 0)" /><rect x="60" y="50" width="10" height="10" fill="rgb(55.318182, 55.318182, 0)" />
<rect x="70" y="50" width="10" height="10" fill="rgb(46.636364, 46.636364, 0)" />
<rect x="40" y="60" width="10" height="10" fill="rgb(150.818182, 150.818182, 0)" />
<rect x="50" y="60" width="10" height="10" fill="rgb(72.681818, 72.681818, 0)" />
<rect x="60" y="60" width="10" height="10" fill="rgb(81.363636, 81.363636, 0)" />
<rect x="70" y="60" width="10" height="10" fill="rgb(37.954545, 37.954545, 0)" />
<rect x="80" y="60" width="10" height="10" fill="rgb(11.909091, 11.909091, 0)" />
<rect x="90" y="60" width="10" height="10" fill="rgb(3.227273, 3.227273, 0)" />
<rect x="40" y="70" width="10" height="10" fill="rgb(142.136364, 142.136364, 0)" />
<rect x="50" y="70" width="10" height="10" fill="rgb(98.727273, 98.727273, 0)" />
<rect x="60" y="70" width="10" height="10" fill="rgb(90.045455, 90.045455, 0)" />
<rect x="70" y="70" width="10" height="10" fill="rgb(29.272727, 29.272727, 0)" />
<rect x="80" y="70" width="10" height="10" fill="rgb(20.590909, 20.590909, 0)" />
<rect x="90" y="70" width="10" height="10" fill="rgb(-5.454545, -5.454545, 0)" />
<rect x="40" y="80" width="10" height="10" fill="rgb(133.454545, 133.454545, 0)" />
<rect x="50" y="80" width="10" height="10" fill="rgb(107.409091, 107.409091, 0)" />
<rect x="60" y="80" width="10" height="10" fill="rgb(255,0,0)" /><rect x="90" y="80" width="10" height="10" fill="rgb(-14.136364, -14.136364, 0)" />
<rect x="40" y="90" width="10" height="10" fill="rgb(124.772727, 124.772727, 0)" />
<rect x="50" y="90" width="10" height="10" fill="rgb(116.090909, 116.090909, 0)" />
<rect x="90" y="90" width="10" height="10" fill="rgb(-22.818182, -22.818182, 0)" />
<line x1="0" y1="0" x2="10" y2="0" stroke="black" /><line x1="0" y1="0" x2="0" y2="10" stroke="black" />
<line x1="10" y1="0" x2="20" y2="0" stroke="black" /><line x1="10" y1="10" x2="20" y2="10" stroke="black" />
<line x1="20" y1="0" x2="30" y2="0" stroke="black" /><line x1="20" y1="10" x2="30" y2="10" stroke="black" />
<line x1="30" y1="0" x2="40" y2="0" stroke="black" /><line x1="30" y1="10" x2="40" y2="10" stroke="black" />
<line x1="40" y1="0" x2="50" y2="0" stroke="black" /><line x1="50" y1="0" x2="60" y2="0" stroke="black" />
<line x1="60" y1="0" x2="60" y2="10" stroke="black" /><line x1="60" y1="0" x2="70" y2="0" stroke="black" />
<line x1="70" y1="0" x2="80" y2="0" stroke="black" /><line x1="70" y1="10" x2="80" y2="10" stroke="black" />
<line x1="80" y1="0" x2="90" y2="0" stroke="black" /><line x1="90" y1="0" x2="100" y2="0" stroke="black" />
<line x1="100" y1="0" x2="100" y2="10" stroke="black" /><line x1="90" y1="10" x2="100" y2="10" stroke="black" />
<line x1="0" y1="10" x2="0" y2="20" stroke="black" /><line x1="10" y1="10" x2="10" y2="20" stroke="black" />
<line x1="20" y1="10" x2="20" y2="20" stroke="black" /><line x1="30" y1="20" x2="40" y2="20" stroke="black" />
<line x1="50" y1="10" x2="50" y2="20" stroke="black" /><line x1="60" y1="10" x2="60" y2="20" stroke="black" />
<line x1="50" y1="20" x2="60" y2="20" stroke="black" /><line x1="80" y1="10" x2="80" y2="20" stroke="black" />
<line x1="70" y1="20" x2="80" y2="20" stroke="black" /><line x1="80" y1="20" x2="90" y2="20" stroke="black" />
<line x1="100" y1="10" x2="100" y2="20" stroke="black" /><line x1="0" y1="20" x2="0" y2="30" stroke="black" />
<line x1="10" y1="20" x2="10" y2="30" stroke="black" /><line x1="20" y1="20" x2="20" y2="30" stroke="black" />
<line x1="30" y1="20" x2="30" y2="30" stroke="black" /><line x1="50" y1="20" x2="50" y2="30" stroke="black" />
<line x1="40" y1="30" x2="50" y2="30" stroke="black" /><line x1="70" y1="20" x2="70" y2="30" stroke="black" />
<line x1="60" y1="30" x2="70" y2="30" stroke="black" /><line x1="70" y1="30" x2="80" y2="30" stroke="black" />
<line x1="80" y1="30" x2="90" y2="30" stroke="black" /><line x1="100" y1="20" x2="100" y2="30" stroke="black" />
<line x1="90" y1="30" x2="100" y2="30" stroke="black" /><line x1="0" y1="30" x2="0" y2="40" stroke="black" />
<line x1="0" y1="40" x2="10" y2="40" stroke="black" /><line x1="20" y1="30" x2="20" y2="40" stroke="black" />
<line x1="10" y1="40" x2="20" y2="40" stroke="black" /><line x1="20" y1="40" x2="30" y2="40" stroke="black" />
<line x1="30" y1="40" x2="40" y2="40" stroke="black" /><line x1="50" y1="30" x2="50" y2="40" stroke="black" />
<line x1="60" y1="30" x2="60" y2="40" stroke="black" /><line x1="80" y1="30" x2="80" y2="40" stroke="black" />
<line x1="100" y1="30" x2="100" y2="40" stroke="black" /><line x1="0" y1="40" x2="0" y2="50" stroke="black" />
<line x1="10" y1="50" x2="20" y2="50" stroke="black" /><line x1="30" y1="40" x2="30" y2="50" stroke="black" />
<line x1="50" y1="40" x2="50" y2="50" stroke="black" /><line x1="50" y1="50" x2="60" y2="50" stroke="black" />
<line x1="70" y1="40" x2="70" y2="50" stroke="black" /><line x1="60" y1="50" x2="70" y2="50" stroke="black" />
<line x1="80" y1="40" x2="80" y2="50" stroke="black" /><line x1="90" y1="40" x2="90" y2="50" stroke="black" />
<line x1="100" y1="40" x2="100" y2="50" stroke="black" /><line x1="0" y1="50" x2="0" y2="60" stroke="black" />
<line x1="10" y1="50" x2="10" y2="60" stroke="black" /><line x1="20" y1="60" x2="30" y2="60" stroke="black" />
<line x1="40" y1="50" x2="40" y2="60" stroke="black" /><line x1="30" y1="60" x2="40" y2="60" stroke="black" />
<line x1="50" y1="50" x2="50" y2="60" stroke="black" /><line x1="60" y1="60" x2="70" y2="60" stroke="black" />
<line x1="80" y1="50" x2="80" y2="60" stroke="black" /><line x1="90" y1="50" x2="90" y2="60" stroke="black" />
<line x1="100" y1="50" x2="100" y2="60" stroke="black" /><line x1="0" y1="60" x2="0" y2="70" stroke="black" />
<line x1="10" y1="60" x2="10" y2="70" stroke="black" /><line x1="20" y1="60" x2="20" y2="70" stroke="black" />
<line x1="30" y1="70" x2="40" y2="70" stroke="black" /><line x1="50" y1="60" x2="50" y2="70" stroke="black" />
<line x1="50" y1="70" x2="60" y2="70" stroke="black" /><line x1="70" y1="60" x2="70" y2="70" stroke="black" />
<line x1="80" y1="60" x2="80" y2="70" stroke="black" /><line x1="100" y1="60" x2="100" y2="70" stroke="black" />
<line x1="0" y1="70" x2="0" y2="80" stroke="black" /><line x1="20" y1="70" x2="20" y2="80" stroke="black" />
<line x1="20" y1="80" x2="30" y2="80" stroke="black" /><line x1="40" y1="70" x2="40" y2="80" stroke="black" />
<line x1="50" y1="70" x2="50" y2="80" stroke="black" /><line x1="70" y1="70" x2="70" y2="80" stroke="black" />
<line x1="60" y1="80" x2="70" y2="80" stroke="black" /><line x1="70" y1="80" x2="80" y2="80" stroke="black" />
<line x1="90" y1="70" x2="90" y2="80" stroke="black" /><line x1="80" y1="80" x2="90" y2="80" stroke="black" />
<line x1="100" y1="70" x2="100" y2="80" stroke="black" /><line x1="0" y1="80" x2="0" y2="90" stroke="black" />
<line x1="10" y1="80" x2="10" y2="90" stroke="black" /><line x1="10" y1="90" x2="20" y2="90" stroke="black" />
<line x1="20" y1="90" x2="30" y2="90" stroke="black" /><line x1="40" y1="80" x2="40" y2="90" stroke="black" />
<line x1="50" y1="80" x2="50" y2="90" stroke="black" /><line x1="60" y1="80" x2="60" y2="90" stroke="black" />
<line x1="70" y1="90" x2="80" y2="90" stroke="black" /><line x1="90" y1="80" x2="90" y2="90" stroke="black" />
<line x1="100" y1="80" x2="100" y2="90" stroke="black" /><line x1="0" y1="90" x2="0" y2="100" stroke="black" />
<line x1="0" y1="100" x2="10" y2="100" stroke="black" /><line x1="10" y1="100" x2="20" y2="100" stroke="black" />
<line x1="20" y1="100" x2="30" y2="100" stroke="black" /><line x1="40" y1="90" x2="40" y2="100" stroke="black" />
<line x1="30" y1="100" x2="40" y2="100" stroke="black" /><line x1="40" y1="100" x2="50" y2="100" stroke="black" />
<line x1="50" y1="100" x2="60" y2="100" stroke="black" /><line x1="70" y1="90" x2="70" y2="100" stroke="black" />
<line x1="60" y1="100" x2="70" y2="100" stroke="black" /><line x1="70" y1="100" x2="80" y2="100" stroke="black" />
<line x1="80" y1="100" x2="90" y2="100" stroke="black" /><line x1="100" y1="90" x2="100" y2="100" stroke="black" />
<line x1="90" y1="100" x2="100" y2="100" stroke="black" /></g>
</svg>
